<svg width="1363" height="163" viewBox="0 0 1363 163" fill="none" xmlns="http://www.w3.org/2000/svg">
<path d="M0 15C0 6.71573 6.71573 0 15 0H37V163H15C6.71573 163 0 156.284 0 148V15Z" fill="#424242"/>
<rect width="1097" height="163" transform="translate(37)" fill="#F0F0F0"/>
<path d="M101.906 53.9219L94.3945 51.2383V48.0859L104.602 52.375V54.6367L101.906 53.9219ZM94.3945 56.1719L101.918 53.4297L104.602 52.7852V55.0352L94.3945 59.3242V56.1719ZM119.895 43.9375V61H116.391V43.9375H119.895ZM125.145 43.9375V46.6914H111.223V43.9375H125.145ZM131.672 61.2344C130.688 61.2344 129.805 61.0781 129.023 60.7656C128.242 60.4453 127.578 60.0039 127.031 59.4414C126.492 58.8789 126.078 58.2266 125.789 57.4844C125.5 56.7344 125.355 55.9375 125.355 55.0938V54.625C125.355 53.6641 125.492 52.7852 125.766 51.9883C126.039 51.1914 126.43 50.5 126.938 49.9141C127.453 49.3281 128.078 48.8789 128.812 48.5664C129.547 48.2461 130.375 48.0859 131.297 48.0859C132.195 48.0859 132.992 48.2344 133.688 48.5312C134.383 48.8281 134.965 49.25 135.434 49.7969C135.91 50.3438 136.27 51 136.512 51.7656C136.754 52.5234 136.875 53.3672 136.875 54.2969V55.7031H126.797V53.4531H133.559V53.1953C133.559 52.7266 133.473 52.3086 133.301 51.9414C133.137 51.5664 132.887 51.2695 132.551 51.0508C132.215 50.832 131.785 50.7227 131.262 50.7227C130.816 50.7227 130.434 50.8203 130.113 51.0156C129.793 51.2109 129.531 51.4844 129.328 51.8359C129.133 52.1875 128.984 52.6016 128.883 53.0781C128.789 53.5469 128.742 54.0625 128.742 54.625V55.0938C128.742 55.6016 128.812 56.0703 128.953 56.5C129.102 56.9297 129.309 57.3008 129.574 57.6133C129.848 57.9258 130.176 58.168 130.559 58.3398C130.949 58.5117 131.391 58.5977 131.883 58.5977C132.492 58.5977 133.059 58.4805 133.582 58.2461C134.113 58.0039 134.57 57.6406 134.953 57.1562L136.594 58.9375C136.328 59.3203 135.965 59.6875 135.504 60.0391C135.051 60.3906 134.504 60.6797 133.863 60.9062C133.223 61.125 132.492 61.2344 131.672 61.2344ZM142.172 51.0859V61H138.797V48.3203H141.973L142.172 51.0859ZM145.992 48.2383L145.934 51.3672C145.77 51.3438 145.57 51.3242 145.336 51.3086C145.109 51.2852 144.902 51.2734 144.715 51.2734C144.238 51.2734 143.824 51.3359 143.473 51.4609C143.129 51.5781 142.84 51.7539 142.605 51.9883C142.379 52.2227 142.207 52.5078 142.09 52.8438C141.98 53.1797 141.918 53.5625 141.902 53.9922L141.223 53.7812C141.223 52.9609 141.305 52.207 141.469 51.5195C141.633 50.8242 141.871 50.2188 142.184 49.7031C142.504 49.1875 142.895 48.7891 143.355 48.5078C143.816 48.2266 144.344 48.0859 144.938 48.0859C145.125 48.0859 145.316 48.1016 145.512 48.1328C145.707 48.1562 145.867 48.1914 145.992 48.2383ZM150.961 51.0859V61H147.586V48.3203H150.762L150.961 51.0859ZM154.781 48.2383L154.723 51.3672C154.559 51.3438 154.359 51.3242 154.125 51.3086C153.898 51.2852 153.691 51.2734 153.504 51.2734C153.027 51.2734 152.613 51.3359 152.262 51.4609C151.918 51.5781 151.629 51.7539 151.395 51.9883C151.168 52.2227 150.996 52.5078 150.879 52.8438C150.77 53.1797 150.707 53.5625 150.691 53.9922L150.012 53.7812C150.012 52.9609 150.094 52.207 150.258 51.5195C150.422 50.8242 150.66 50.2188 150.973 49.7031C151.293 49.1875 151.684 48.7891 152.145 48.5078C152.605 48.2266 153.133 48.0859 153.727 48.0859C153.914 48.0859 154.105 48.1016 154.301 48.1328C154.496 48.1562 154.656 48.1914 154.781 48.2383ZM163.523 46.8555L158.883 61H155.145L161.484 43.9375H163.863L163.523 46.8555ZM167.379 61L162.727 46.8555L162.352 43.9375H164.754L171.129 61H167.379ZM167.168 54.6484V57.4023H158.156V54.6484H167.168ZM176.062 43V61H172.676V43H176.062ZM184.688 61.2344C183.703 61.2344 182.82 61.0781 182.039 60.7656C181.258 60.4453 180.594 60.0039 180.047 59.4414C179.508 58.8789 179.094 58.2266 178.805 57.4844C178.516 56.7344 178.371 55.9375 178.371 55.0938V54.625C178.371 53.6641 178.508 52.7852 178.781 51.9883C179.055 51.1914 179.445 50.5 179.953 49.9141C180.469 49.3281 181.094 48.8789 181.828 48.5664C182.562 48.2461 183.391 48.0859 184.312 48.0859C185.211 48.0859 186.008 48.2344 186.703 48.5312C187.398 48.8281 187.98 49.25 188.449 49.7969C188.926 50.3438 189.285 51 189.527 51.7656C189.77 52.5234 189.891 53.3672 189.891 54.2969V55.7031H179.812V53.4531H186.574V53.1953C186.574 52.7266 186.488 52.3086 186.316 51.9414C186.152 51.5664 185.902 51.2695 185.566 51.0508C185.23 50.832 184.801 50.7227 184.277 50.7227C183.832 50.7227 183.449 50.8203 183.129 51.0156C182.809 51.2109 182.547 51.4844 182.344 51.8359C182.148 52.1875 182 52.6016 181.898 53.0781C181.805 53.5469 181.758 54.0625 181.758 54.625V55.0938C181.758 55.6016 181.828 56.0703 181.969 56.5C182.117 56.9297 182.324 57.3008 182.59 57.6133C182.863 57.9258 183.191 58.168 183.574 58.3398C183.965 58.5117 184.406 58.5977 184.898 58.5977C185.508 58.5977 186.074 58.4805 186.598 58.2461C187.129 58.0039 187.586 57.6406 187.969 57.1562L189.609 58.9375C189.344 59.3203 188.98 59.6875 188.52 60.0391C188.066 60.3906 187.52 60.6797 186.879 60.9062C186.238 61.125 185.508 61.2344 184.688 61.2344ZM195.188 51.0859V61H191.812V48.3203H194.988L195.188 51.0859ZM199.008 48.2383L198.949 51.3672C198.785 51.3438 198.586 51.3242 198.352 51.3086C198.125 51.2852 197.918 51.2734 197.73 51.2734C197.254 51.2734 196.84 51.3359 196.488 51.4609C196.145 51.5781 195.855 51.7539 195.621 51.9883C195.395 52.2227 195.223 52.5078 195.105 52.8438C194.996 53.1797 194.934 53.5625 194.918 53.9922L194.238 53.7812C194.238 52.9609 194.32 52.207 194.484 51.5195C194.648 50.8242 194.887 50.2188 195.199 49.7031C195.52 49.1875 195.91 48.7891 196.371 48.5078C196.832 48.2266 197.359 48.0859 197.953 48.0859C198.141 48.0859 198.332 48.1016 198.527 48.1328C198.723 48.1562 198.883 48.1914 199.008 48.2383ZM207.398 48.3203V50.7109H200.016V48.3203H207.398ZM201.844 45.1914H205.219V57.1797C205.219 57.5469 205.266 57.8281 205.359 58.0234C205.461 58.2188 205.609 58.3555 205.805 58.4336C206 58.5039 206.246 58.5391 206.543 58.5391C206.754 58.5391 206.941 58.5312 207.105 58.5156C207.277 58.4922 207.422 58.4688 207.539 58.4453L207.551 60.9297C207.262 61.0234 206.949 61.0977 206.613 61.1523C206.277 61.207 205.906 61.2344 205.5 61.2344C204.758 61.2344 204.109 61.1133 203.555 60.8711C203.008 60.6211 202.586 60.2227 202.289 59.6758C201.992 59.1289 201.844 58.4102 201.844 57.5195V45.1914Z" fill="#888888"/>
<path d="M106.688 119H99.1172L99.1641 112.672H106.688C108.25 112.672 109.57 112.297 110.648 111.547C111.742 110.797 112.57 109.68 113.133 108.195C113.711 106.695 114 104.852 114 102.664V101.188C114 99.5469 113.836 98.1094 113.508 96.875C113.195 95.625 112.727 94.5859 112.102 93.7578C111.477 92.9141 110.695 92.2812 109.758 91.8594C108.836 91.4375 107.773 91.2266 106.57 91.2266H98.9766V84.875H106.57C108.883 84.875 111 85.2734 112.922 86.0703C114.859 86.8516 116.531 87.9766 117.938 89.4453C119.359 90.8984 120.453 92.625 121.219 94.625C122 96.6094 122.391 98.8125 122.391 101.234V102.664C122.391 105.07 122 107.273 121.219 109.273C120.453 111.273 119.367 113 117.961 114.453C116.555 115.906 114.891 117.031 112.969 117.828C111.062 118.609 108.969 119 106.688 119ZM103.828 84.875V119H95.6016V84.875H103.828ZM139.477 112.625V102.172C139.477 101.453 139.375 100.836 139.172 100.32C138.969 99.8047 138.648 99.4062 138.211 99.125C137.773 98.8281 137.188 98.6797 136.453 98.6797C135.859 98.6797 135.352 98.7812 134.93 98.9844C134.508 99.1875 134.188 99.4922 133.969 99.8984C133.75 100.305 133.641 100.82 133.641 101.445H125.742C125.742 100.273 126 99.1875 126.516 98.1875C127.047 97.1719 127.797 96.2891 128.766 95.5391C129.75 94.7891 130.922 94.2109 132.281 93.8047C133.656 93.3828 135.188 93.1719 136.875 93.1719C138.891 93.1719 140.688 93.5078 142.266 94.1797C143.859 94.8516 145.117 95.8594 146.039 97.2031C146.961 98.5312 147.422 100.203 147.422 102.219V112.602C147.422 114.258 147.516 115.516 147.703 116.375C147.891 117.219 148.156 117.961 148.5 118.602V119H140.578C140.203 118.219 139.922 117.266 139.734 116.141C139.562 115 139.477 113.828 139.477 112.625ZM140.438 103.508L140.484 107.727H136.992C136.258 107.727 135.633 107.828 135.117 108.031C134.617 108.234 134.211 108.516 133.898 108.875C133.602 109.219 133.383 109.609 133.242 110.047C133.117 110.484 133.055 110.945 133.055 111.43C133.055 111.898 133.164 112.32 133.383 112.695C133.617 113.055 133.93 113.336 134.32 113.539C134.711 113.742 135.148 113.844 135.633 113.844C136.508 113.844 137.25 113.68 137.859 113.352C138.484 113.008 138.961 112.594 139.289 112.109C139.617 111.625 139.781 111.172 139.781 110.75L141.516 113.984C141.203 114.609 140.844 115.242 140.438 115.883C140.047 116.523 139.555 117.117 138.961 117.664C138.383 118.195 137.672 118.633 136.828 118.977C135.984 119.305 134.961 119.469 133.758 119.469C132.195 119.469 130.758 119.148 129.445 118.508C128.148 117.867 127.109 116.977 126.328 115.836C125.547 114.68 125.156 113.352 125.156 111.852C125.156 110.539 125.391 109.367 125.859 108.336C126.344 107.305 127.07 106.43 128.039 105.711C129.008 104.992 130.242 104.445 131.742 104.07C133.242 103.695 135.008 103.508 137.039 103.508H140.438ZM165.164 93.6406V99.125H149.883V93.6406H165.164ZM153.094 87.3359H160.992V110.727C160.992 111.398 161.07 111.922 161.227 112.297C161.383 112.656 161.648 112.914 162.023 113.07C162.414 113.211 162.93 113.281 163.57 113.281C164.023 113.281 164.398 113.273 164.695 113.258C164.992 113.227 165.273 113.188 165.539 113.141V118.789C164.867 119.008 164.164 119.172 163.43 119.281C162.695 119.406 161.914 119.469 161.086 119.469C159.398 119.469 157.953 119.203 156.75 118.672C155.562 118.141 154.656 117.305 154.031 116.164C153.406 115.023 153.094 113.539 153.094 111.711V87.3359ZM181.477 112.625V102.172C181.477 101.453 181.375 100.836 181.172 100.32C180.969 99.8047 180.648 99.4062 180.211 99.125C179.773 98.8281 179.188 98.6797 178.453 98.6797C177.859 98.6797 177.352 98.7812 176.93 98.9844C176.508 99.1875 176.188 99.4922 175.969 99.8984C175.75 100.305 175.641 100.82 175.641 101.445H167.742C167.742 100.273 168 99.1875 168.516 98.1875C169.047 97.1719 169.797 96.2891 170.766 95.5391C171.75 94.7891 172.922 94.2109 174.281 93.8047C175.656 93.3828 177.188 93.1719 178.875 93.1719C180.891 93.1719 182.688 93.5078 184.266 94.1797C185.859 94.8516 187.117 95.8594 188.039 97.2031C188.961 98.5312 189.422 100.203 189.422 102.219V112.602C189.422 114.258 189.516 115.516 189.703 116.375C189.891 117.219 190.156 117.961 190.5 118.602V119H182.578C182.203 118.219 181.922 117.266 181.734 116.141C181.562 115 181.477 113.828 181.477 112.625ZM182.438 103.508L182.484 107.727H178.992C178.258 107.727 177.633 107.828 177.117 108.031C176.617 108.234 176.211 108.516 175.898 108.875C175.602 109.219 175.383 109.609 175.242 110.047C175.117 110.484 175.055 110.945 175.055 111.43C175.055 111.898 175.164 112.32 175.383 112.695C175.617 113.055 175.93 113.336 176.32 113.539C176.711 113.742 177.148 113.844 177.633 113.844C178.508 113.844 179.25 113.68 179.859 113.352C180.484 113.008 180.961 112.594 181.289 112.109C181.617 111.625 181.781 111.172 181.781 110.75L183.516 113.984C183.203 114.609 182.844 115.242 182.438 115.883C182.047 116.523 181.555 117.117 180.961 117.664C180.383 118.195 179.672 118.633 178.828 118.977C177.984 119.305 176.961 119.469 175.758 119.469C174.195 119.469 172.758 119.148 171.445 118.508C170.148 117.867 169.109 116.977 168.328 115.836C167.547 114.68 167.156 113.352 167.156 111.852C167.156 110.539 167.391 109.367 167.859 108.336C168.344 107.305 169.07 106.43 170.039 105.711C171.008 104.992 172.242 104.445 173.742 104.07C175.242 103.695 177.008 103.508 179.039 103.508H182.438ZM219.047 110.961L226.148 84.875H235.359L223.852 119H217.898L219.047 110.961ZM212.602 84.875L219.703 110.961L220.898 119H214.875L203.438 84.875H212.602ZM249.586 112.625V102.172C249.586 101.453 249.484 100.836 249.281 100.32C249.078 99.8047 248.758 99.4062 248.32 99.125C247.883 98.8281 247.297 98.6797 246.562 98.6797C245.969 98.6797 245.461 98.7812 245.039 98.9844C244.617 99.1875 244.297 99.4922 244.078 99.8984C243.859 100.305 243.75 100.82 243.75 101.445H235.852C235.852 100.273 236.109 99.1875 236.625 98.1875C237.156 97.1719 237.906 96.2891 238.875 95.5391C239.859 94.7891 241.031 94.2109 242.391 93.8047C243.766 93.3828 245.297 93.1719 246.984 93.1719C249 93.1719 250.797 93.5078 252.375 94.1797C253.969 94.8516 255.227 95.8594 256.148 97.2031C257.07 98.5312 257.531 100.203 257.531 102.219V112.602C257.531 114.258 257.625 115.516 257.812 116.375C258 117.219 258.266 117.961 258.609 118.602V119H250.688C250.312 118.219 250.031 117.266 249.844 116.141C249.672 115 249.586 113.828 249.586 112.625ZM250.547 103.508L250.594 107.727H247.102C246.367 107.727 245.742 107.828 245.227 108.031C244.727 108.234 244.32 108.516 244.008 108.875C243.711 109.219 243.492 109.609 243.352 110.047C243.227 110.484 243.164 110.945 243.164 111.43C243.164 111.898 243.273 112.32 243.492 112.695C243.727 113.055 244.039 113.336 244.43 113.539C244.82 113.742 245.258 113.844 245.742 113.844C246.617 113.844 247.359 113.68 247.969 113.352C248.594 113.008 249.07 112.594 249.398 112.109C249.727 111.625 249.891 111.172 249.891 110.75L251.625 113.984C251.312 114.609 250.953 115.242 250.547 115.883C250.156 116.523 249.664 117.117 249.07 117.664C248.492 118.195 247.781 118.633 246.938 118.977C246.094 119.305 245.07 119.469 243.867 119.469C242.305 119.469 240.867 119.148 239.555 118.508C238.258 117.867 237.219 116.977 236.438 115.836C235.656 114.68 235.266 113.352 235.266 111.852C235.266 110.539 235.5 109.367 235.969 108.336C236.453 107.305 237.18 106.43 238.148 105.711C239.117 104.992 240.352 104.445 241.852 104.07C243.352 103.695 245.117 103.508 247.148 103.508H250.547ZM270.258 83V119H262.336V83H270.258ZM283.477 93.6406V119H275.555V93.6406H283.477ZM275.086 87.1016C275.086 85.9766 275.492 85.0547 276.305 84.3359C277.117 83.6172 278.172 83.2578 279.469 83.2578C280.766 83.2578 281.82 83.6172 282.633 84.3359C283.445 85.0547 283.852 85.9766 283.852 87.1016C283.852 88.2266 283.445 89.1484 282.633 89.8672C281.82 90.5859 280.766 90.9453 279.469 90.9453C278.172 90.9453 277.117 90.5859 276.305 89.8672C275.492 89.1484 275.086 88.2266 275.086 87.1016ZM302.93 113.188V83H310.875V119H303.75L302.93 113.188ZM287.367 106.625V106.133C287.367 104.211 287.578 102.461 288 100.883C288.422 99.2891 289.047 97.9219 289.875 96.7812C290.703 95.625 291.734 94.7344 292.969 94.1094C294.203 93.4844 295.625 93.1719 297.234 93.1719C298.672 93.1719 299.93 93.5078 301.008 94.1797C302.086 94.8359 303.008 95.7578 303.773 96.9453C304.539 98.1328 305.164 99.5234 305.648 101.117C306.133 102.695 306.5 104.398 306.75 106.227V106.812C306.5 108.531 306.133 110.156 305.648 111.688C305.164 113.203 304.539 114.547 303.773 115.719C303.008 116.891 302.078 117.812 300.984 118.484C299.906 119.141 298.641 119.469 297.188 119.469C295.578 119.469 294.156 119.148 292.922 118.508C291.703 117.867 290.68 116.969 289.852 115.812C289.039 114.656 288.422 113.297 288 111.734C287.578 110.172 287.367 108.469 287.367 106.625ZM295.266 106.133V106.625C295.266 107.578 295.328 108.461 295.453 109.273C295.578 110.086 295.789 110.805 296.086 111.43C296.398 112.039 296.805 112.516 297.305 112.859C297.82 113.203 298.453 113.375 299.203 113.375C300.219 113.375 301.055 113.133 301.711 112.648C302.383 112.164 302.875 111.477 303.188 110.586C303.516 109.695 303.656 108.648 303.609 107.445V105.594C303.641 104.562 303.57 103.656 303.398 102.875C303.227 102.078 302.953 101.414 302.578 100.883C302.219 100.352 301.758 99.9531 301.195 99.6875C300.648 99.4062 300 99.2656 299.25 99.2656C298.516 99.2656 297.891 99.4375 297.375 99.7812C296.875 100.125 296.469 100.609 296.156 101.234C295.844 101.844 295.617 102.57 295.477 103.414C295.336 104.242 295.266 105.148 295.266 106.133ZM328.523 112.625V102.172C328.523 101.453 328.422 100.836 328.219 100.32C328.016 99.8047 327.695 99.4062 327.258 99.125C326.82 98.8281 326.234 98.6797 325.5 98.6797C324.906 98.6797 324.398 98.7812 323.977 98.9844C323.555 99.1875 323.234 99.4922 323.016 99.8984C322.797 100.305 322.688 100.82 322.688 101.445H314.789C314.789 100.273 315.047 99.1875 315.562 98.1875C316.094 97.1719 316.844 96.2891 317.812 95.5391C318.797 94.7891 319.969 94.2109 321.328 93.8047C322.703 93.3828 324.234 93.1719 325.922 93.1719C327.938 93.1719 329.734 93.5078 331.312 94.1797C332.906 94.8516 334.164 95.8594 335.086 97.2031C336.008 98.5312 336.469 100.203 336.469 102.219V112.602C336.469 114.258 336.562 115.516 336.75 116.375C336.938 117.219 337.203 117.961 337.547 118.602V119H329.625C329.25 118.219 328.969 117.266 328.781 116.141C328.609 115 328.523 113.828 328.523 112.625ZM329.484 103.508L329.531 107.727H326.039C325.305 107.727 324.68 107.828 324.164 108.031C323.664 108.234 323.258 108.516 322.945 108.875C322.648 109.219 322.43 109.609 322.289 110.047C322.164 110.484 322.102 110.945 322.102 111.43C322.102 111.898 322.211 112.32 322.43 112.695C322.664 113.055 322.977 113.336 323.367 113.539C323.758 113.742 324.195 113.844 324.68 113.844C325.555 113.844 326.297 113.68 326.906 113.352C327.531 113.008 328.008 112.594 328.336 112.109C328.664 111.625 328.828 111.172 328.828 110.75L330.562 113.984C330.25 114.609 329.891 115.242 329.484 115.883C329.094 116.523 328.602 117.117 328.008 117.664C327.43 118.195 326.719 118.633 325.875 118.977C325.031 119.305 324.008 119.469 322.805 119.469C321.242 119.469 319.805 119.148 318.492 118.508C317.195 117.867 316.156 116.977 315.375 115.836C314.594 114.68 314.203 113.352 314.203 111.852C314.203 110.539 314.438 109.367 314.906 108.336C315.391 107.305 316.117 106.43 317.086 105.711C318.055 104.992 319.289 104.445 320.789 104.07C322.289 103.695 324.055 103.508 326.086 103.508H329.484ZM354.211 93.6406V99.125H338.93V93.6406H354.211ZM342.141 87.3359H350.039V110.727C350.039 111.398 350.117 111.922 350.273 112.297C350.43 112.656 350.695 112.914 351.07 113.07C351.461 113.211 351.977 113.281 352.617 113.281C353.07 113.281 353.445 113.273 353.742 113.258C354.039 113.227 354.32 113.188 354.586 113.141V118.789C353.914 119.008 353.211 119.172 352.477 119.281C351.742 119.406 350.961 119.469 350.133 119.469C348.445 119.469 347 119.203 345.797 118.672C344.609 118.141 343.703 117.305 343.078 116.164C342.453 115.023 342.141 113.539 342.141 111.711V87.3359ZM365.695 93.6406V119H357.773V93.6406H365.695ZM357.305 87.1016C357.305 85.9766 357.711 85.0547 358.523 84.3359C359.336 83.6172 360.391 83.2578 361.688 83.2578C362.984 83.2578 364.039 83.6172 364.852 84.3359C365.664 85.0547 366.07 85.9766 366.07 87.1016C366.07 88.2266 365.664 89.1484 364.852 89.8672C364.039 90.5859 362.984 90.9453 361.688 90.9453C360.391 90.9453 359.336 90.5859 358.523 89.8672C357.711 89.1484 357.305 88.2266 357.305 87.1016ZM369.586 106.578V106.086C369.586 104.227 369.852 102.516 370.383 100.953C370.914 99.375 371.695 98.0078 372.727 96.8516C373.758 95.6953 375.031 94.7969 376.547 94.1562C378.062 93.5 379.812 93.1719 381.797 93.1719C383.797 93.1719 385.555 93.5 387.07 94.1562C388.602 94.7969 389.883 95.6953 390.914 96.8516C391.945 98.0078 392.727 99.375 393.258 100.953C393.789 102.516 394.055 104.227 394.055 106.086V106.578C394.055 108.422 393.789 110.133 393.258 111.711C392.727 113.273 391.945 114.641 390.914 115.812C389.883 116.969 388.609 117.867 387.094 118.508C385.578 119.148 383.828 119.469 381.844 119.469C379.859 119.469 378.102 119.148 376.57 118.508C375.039 117.867 373.758 116.969 372.727 115.812C371.695 114.641 370.914 113.273 370.383 111.711C369.852 110.133 369.586 108.422 369.586 106.578ZM377.484 106.086V106.578C377.484 107.531 377.555 108.422 377.695 109.25C377.836 110.078 378.07 110.805 378.398 111.43C378.727 112.039 379.172 112.516 379.734 112.859C380.297 113.203 381 113.375 381.844 113.375C382.672 113.375 383.359 113.203 383.906 112.859C384.469 112.516 384.914 112.039 385.242 111.43C385.57 110.805 385.805 110.078 385.945 109.25C386.086 108.422 386.156 107.531 386.156 106.578V106.086C386.156 105.164 386.086 104.297 385.945 103.484C385.805 102.656 385.57 101.93 385.242 101.305C384.914 100.664 384.469 100.164 383.906 99.8047C383.344 99.4453 382.641 99.2656 381.797 99.2656C380.969 99.2656 380.273 99.4453 379.711 99.8047C379.164 100.164 378.727 100.664 378.398 101.305C378.07 101.93 377.836 102.656 377.695 103.484C377.555 104.297 377.484 105.164 377.484 106.086ZM405.328 99.0547V119H397.43V93.6406H404.836L405.328 99.0547ZM404.391 105.453L402.539 105.5C402.539 103.562 402.773 101.836 403.242 100.32C403.711 98.7891 404.375 97.4922 405.234 96.4297C406.094 95.3672 407.117 94.5625 408.305 94.0156C409.508 93.4531 410.844 93.1719 412.312 93.1719C413.484 93.1719 414.555 93.3438 415.523 93.6875C416.508 94.0312 417.352 94.5859 418.055 95.3516C418.773 96.1172 419.32 97.1328 419.695 98.3984C420.086 99.6484 420.281 101.195 420.281 103.039V119H412.336V103.016C412.336 102 412.195 101.227 411.914 100.695C411.633 100.148 411.227 99.7734 410.695 99.5703C410.164 99.3672 409.516 99.2656 408.75 99.2656C407.938 99.2656 407.25 99.4219 406.688 99.7344C406.125 100.047 405.672 100.484 405.328 101.047C405 101.594 404.758 102.242 404.602 102.992C404.461 103.742 404.391 104.562 404.391 105.453Z" fill="black"/>
<path d="M1134 0H1348C1356.28 0 1363 6.71573 1363 15V148C1363 156.284 1356.28 163 1348 163H1134V0Z" fill="#3A5A40"/>
<path d="M1210.62 43.625H1286.38V119.375H1210.62V43.625Z" fill="white" fill-opacity="0.01"/>
<path d="M1276.91 72.0312V105.172C1276.91 107.787 1274.79 109.906 1272.17 109.906H1224.83C1222.21 109.906 1220.09 107.787 1220.09 105.172V57.8281C1220.09 55.2134 1222.21 53.0938 1224.83 53.0938H1261.12" stroke="white" stroke-width="7.24" stroke-linecap="round" stroke-linejoin="round"/>
<path d="M1232.72 75.1875L1248.5 87.8125L1276.91 53.0938" stroke="white" stroke-width="7.24" stroke-linecap="round" stroke-linejoin="round"/>
</svg>
