<svg width="1363" height="163" viewBox="0 0 1363 163" fill="none" xmlns="http://www.w3.org/2000/svg">
<path d="M0 15C0 6.71573 6.71573 0 15 0H37V163H15C6.71573 163 0 156.284 0 148V15Z" fill="#424242"/>
<rect width="1097" height="163" transform="translate(37)" fill="#F0F0F0"/>
<path d="M101.906 53.9219L94.3945 51.2383V48.0859L104.602 52.375V54.6367L101.906 53.9219ZM94.3945 56.1719L101.918 53.4297L104.602 52.7852V55.0352L94.3945 59.3242V56.1719ZM119.895 43.9375V61H116.391V43.9375H119.895ZM125.145 43.9375V46.6914H111.223V43.9375H125.145ZM131.672 61.2344C130.688 61.2344 129.805 61.0781 129.023 60.7656C128.242 60.4453 127.578 60.0039 127.031 59.4414C126.492 58.8789 126.078 58.2266 125.789 57.4844C125.5 56.7344 125.355 55.9375 125.355 55.0938V54.625C125.355 53.6641 125.492 52.7852 125.766 51.9883C126.039 51.1914 126.43 50.5 126.938 49.9141C127.453 49.3281 128.078 48.8789 128.812 48.5664C129.547 48.2461 130.375 48.0859 131.297 48.0859C132.195 48.0859 132.992 48.2344 133.688 48.5312C134.383 48.8281 134.965 49.25 135.434 49.7969C135.91 50.3438 136.27 51 136.512 51.7656C136.754 52.5234 136.875 53.3672 136.875 54.2969V55.7031H126.797V53.4531H133.559V53.1953C133.559 52.7266 133.473 52.3086 133.301 51.9414C133.137 51.5664 132.887 51.2695 132.551 51.0508C132.215 50.832 131.785 50.7227 131.262 50.7227C130.816 50.7227 130.434 50.8203 130.113 51.0156C129.793 51.2109 129.531 51.4844 129.328 51.8359C129.133 52.1875 128.984 52.6016 128.883 53.0781C128.789 53.5469 128.742 54.0625 128.742 54.625V55.0938C128.742 55.6016 128.812 56.0703 128.953 56.5C129.102 56.9297 129.309 57.3008 129.574 57.6133C129.848 57.9258 130.176 58.168 130.559 58.3398C130.949 58.5117 131.391 58.5977 131.883 58.5977C132.492 58.5977 133.059 58.4805 133.582 58.2461C134.113 58.0039 134.57 57.6406 134.953 57.1562L136.594 58.9375C136.328 59.3203 135.965 59.6875 135.504 60.0391C135.051 60.3906 134.504 60.6797 133.863 60.9062C133.223 61.125 132.492 61.2344 131.672 61.2344ZM142.172 51.0859V61H138.797V48.3203H141.973L142.172 51.0859ZM145.992 48.2383L145.934 51.3672C145.77 51.3438 145.57 51.3242 145.336 51.3086C145.109 51.2852 144.902 51.2734 144.715 51.2734C144.238 51.2734 143.824 51.3359 143.473 51.4609C143.129 51.5781 142.84 51.7539 142.605 51.9883C142.379 52.2227 142.207 52.5078 142.09 52.8438C141.98 53.1797 141.918 53.5625 141.902 53.9922L141.223 53.7812C141.223 52.9609 141.305 52.207 141.469 51.5195C141.633 50.8242 141.871 50.2188 142.184 49.7031C142.504 49.1875 142.895 48.7891 143.355 48.5078C143.816 48.2266 144.344 48.0859 144.938 48.0859C145.125 48.0859 145.316 48.1016 145.512 48.1328C145.707 48.1562 145.867 48.1914 145.992 48.2383ZM150.961 51.0859V61H147.586V48.3203H150.762L150.961 51.0859ZM154.781 48.2383L154.723 51.3672C154.559 51.3438 154.359 51.3242 154.125 51.3086C153.898 51.2852 153.691 51.2734 153.504 51.2734C153.027 51.2734 152.613 51.3359 152.262 51.4609C151.918 51.5781 151.629 51.7539 151.395 51.9883C151.168 52.2227 150.996 52.5078 150.879 52.8438C150.77 53.1797 150.707 53.5625 150.691 53.9922L150.012 53.7812C150.012 52.9609 150.094 52.207 150.258 51.5195C150.422 50.8242 150.66 50.2188 150.973 49.7031C151.293 49.1875 151.684 48.7891 152.145 48.5078C152.605 48.2266 153.133 48.0859 153.727 48.0859C153.914 48.0859 154.105 48.1016 154.301 48.1328C154.496 48.1562 154.656 48.1914 154.781 48.2383ZM163.523 46.8555L158.883 61H155.145L161.484 43.9375H163.863L163.523 46.8555ZM167.379 61L162.727 46.8555L162.352 43.9375H164.754L171.129 61H167.379ZM167.168 54.6484V57.4023H158.156V54.6484H167.168ZM176.062 43V61H172.676V43H176.062ZM184.688 61.2344C183.703 61.2344 182.82 61.0781 182.039 60.7656C181.258 60.4453 180.594 60.0039 180.047 59.4414C179.508 58.8789 179.094 58.2266 178.805 57.4844C178.516 56.7344 178.371 55.9375 178.371 55.0938V54.625C178.371 53.6641 178.508 52.7852 178.781 51.9883C179.055 51.1914 179.445 50.5 179.953 49.9141C180.469 49.3281 181.094 48.8789 181.828 48.5664C182.562 48.2461 183.391 48.0859 184.312 48.0859C185.211 48.0859 186.008 48.2344 186.703 48.5312C187.398 48.8281 187.98 49.25 188.449 49.7969C188.926 50.3438 189.285 51 189.527 51.7656C189.77 52.5234 189.891 53.3672 189.891 54.2969V55.7031H179.812V53.4531H186.574V53.1953C186.574 52.7266 186.488 52.3086 186.316 51.9414C186.152 51.5664 185.902 51.2695 185.566 51.0508C185.23 50.832 184.801 50.7227 184.277 50.7227C183.832 50.7227 183.449 50.8203 183.129 51.0156C182.809 51.2109 182.547 51.4844 182.344 51.8359C182.148 52.1875 182 52.6016 181.898 53.0781C181.805 53.5469 181.758 54.0625 181.758 54.625V55.0938C181.758 55.6016 181.828 56.0703 181.969 56.5C182.117 56.9297 182.324 57.3008 182.59 57.6133C182.863 57.9258 183.191 58.168 183.574 58.3398C183.965 58.5117 184.406 58.5977 184.898 58.5977C185.508 58.5977 186.074 58.4805 186.598 58.2461C187.129 58.0039 187.586 57.6406 187.969 57.1562L189.609 58.9375C189.344 59.3203 188.98 59.6875 188.52 60.0391C188.066 60.3906 187.52 60.6797 186.879 60.9062C186.238 61.125 185.508 61.2344 184.688 61.2344ZM195.188 51.0859V61H191.812V48.3203H194.988L195.188 51.0859ZM199.008 48.2383L198.949 51.3672C198.785 51.3438 198.586 51.3242 198.352 51.3086C198.125 51.2852 197.918 51.2734 197.73 51.2734C197.254 51.2734 196.84 51.3359 196.488 51.4609C196.145 51.5781 195.855 51.7539 195.621 51.9883C195.395 52.2227 195.223 52.5078 195.105 52.8438C194.996 53.1797 194.934 53.5625 194.918 53.9922L194.238 53.7812C194.238 52.9609 194.32 52.207 194.484 51.5195C194.648 50.8242 194.887 50.2188 195.199 49.7031C195.52 49.1875 195.91 48.7891 196.371 48.5078C196.832 48.2266 197.359 48.0859 197.953 48.0859C198.141 48.0859 198.332 48.1016 198.527 48.1328C198.723 48.1562 198.883 48.1914 199.008 48.2383ZM207.398 48.3203V50.7109H200.016V48.3203H207.398ZM201.844 45.1914H205.219V57.1797C205.219 57.5469 205.266 57.8281 205.359 58.0234C205.461 58.2188 205.609 58.3555 205.805 58.4336C206 58.5039 206.246 58.5391 206.543 58.5391C206.754 58.5391 206.941 58.5312 207.105 58.5156C207.277 58.4922 207.422 58.4688 207.539 58.4453L207.551 60.9297C207.262 61.0234 206.949 61.0977 206.613 61.1523C206.277 61.207 205.906 61.2344 205.5 61.2344C204.758 61.2344 204.109 61.1133 203.555 60.8711C203.008 60.6211 202.586 60.2227 202.289 59.6758C201.992 59.1289 201.844 58.4102 201.844 57.5195V45.1914Z" fill="#888888"/>
<path d="M114.117 84.875H122.344V107.164C122.344 109.82 121.789 112.07 120.68 113.914C119.57 115.742 118.016 117.125 116.016 118.062C114.016 119 111.664 119.469 108.961 119.469C106.289 119.469 103.938 119 101.906 118.062C99.8906 117.125 98.3125 115.742 97.1719 113.914C96.0469 112.07 95.4844 109.82 95.4844 107.164V84.875H103.734V107.164C103.734 108.57 103.938 109.719 104.344 110.609C104.75 111.484 105.344 112.125 106.125 112.531C106.906 112.938 107.852 113.141 108.961 113.141C110.086 113.141 111.031 112.938 111.797 112.531C112.562 112.125 113.141 111.484 113.531 110.609C113.922 109.719 114.117 108.57 114.117 107.164V84.875ZM136.266 84.875V119H128.062V84.875H136.266ZM172.523 84.875H180.75V107.164C180.75 109.82 180.195 112.07 179.086 113.914C177.977 115.742 176.422 117.125 174.422 118.062C172.422 119 170.07 119.469 167.367 119.469C164.695 119.469 162.344 119 160.312 118.062C158.297 117.125 156.719 115.742 155.578 113.914C154.453 112.07 153.891 109.82 153.891 107.164V84.875H162.141V107.164C162.141 108.57 162.344 109.719 162.75 110.609C163.156 111.484 163.75 112.125 164.531 112.531C165.312 112.938 166.258 113.141 167.367 113.141C168.492 113.141 169.438 112.938 170.203 112.531C170.969 112.125 171.547 111.484 171.938 110.609C172.328 109.719 172.523 108.57 172.523 107.164V84.875ZM193.078 84.875L198.656 96.2188L204.234 84.875H213.609L204.094 101.797L213.867 119H204.398L198.656 107.445L192.914 119H183.422L193.219 101.797L183.68 84.875H193.078Z" fill="black"/>
<path d="M1134 0H1348C1356.28 0 1363 6.71573 1363 15V148C1363 156.284 1356.28 163 1348 163H1134V0Z" fill="#3A5A40"/>
<path d="M1248.5 111.917C1244.51 111.917 1240.55 111.13 1236.86 109.601C1233.17 108.073 1229.82 105.832 1226.99 103.008C1221.29 97.3036 1218.08 89.567 1218.08 81.5C1218.08 73.433 1221.29 65.6964 1226.99 59.9922C1232.7 54.2879 1240.43 51.0833 1248.5 51.0833C1265.23 51.0833 1278.92 63.25 1278.92 78.4583C1278.92 83.2985 1276.99 87.9405 1273.57 91.363C1270.15 94.7856 1265.51 96.7083 1260.67 96.7083H1255.19C1254.28 96.7083 1253.67 97.3167 1253.67 98.2292C1253.67 98.5333 1253.97 98.8375 1253.97 99.1417C1255.19 100.662 1255.8 102.487 1255.8 104.312C1256.1 108.571 1252.76 111.917 1248.5 111.917ZM1248.5 57.1667C1242.05 57.1667 1235.86 59.7303 1231.29 64.2937C1226.73 68.8571 1224.17 75.0464 1224.17 81.5C1224.17 87.9536 1226.73 94.1429 1231.29 98.7063C1235.86 103.27 1242.05 105.833 1248.5 105.833C1249.41 105.833 1250.02 105.225 1250.02 104.312C1250.02 103.704 1249.72 103.4 1249.72 103.096C1248.5 101.575 1247.89 100.054 1247.89 98.2292C1247.89 93.9708 1251.24 90.625 1255.5 90.625H1260.67C1263.89 90.625 1266.99 89.3432 1269.27 87.0615C1271.55 84.7798 1272.83 81.6851 1272.83 78.4583C1272.83 66.5958 1261.88 57.1667 1248.5 57.1667ZM1231.77 75.4167C1234.2 75.4167 1236.33 77.5458 1236.33 79.9792C1236.33 82.4125 1234.2 84.5417 1231.77 84.5417C1229.34 84.5417 1227.21 82.4125 1227.21 79.9792C1227.21 77.5458 1229.34 75.4167 1231.77 75.4167ZM1240.9 63.25C1243.33 63.25 1245.46 65.3792 1245.46 67.8125C1245.46 70.2458 1243.33 72.375 1240.9 72.375C1238.46 72.375 1236.33 70.2458 1236.33 67.8125C1236.33 65.3792 1238.46 63.25 1240.9 63.25ZM1256.1 63.25C1258.54 63.25 1260.67 65.3792 1260.67 67.8125C1260.67 70.2458 1258.54 72.375 1256.1 72.375C1253.67 72.375 1251.54 70.2458 1251.54 67.8125C1251.54 65.3792 1253.67 63.25 1256.1 63.25ZM1265.23 75.4167C1267.66 75.4167 1269.79 77.5458 1269.79 79.9792C1269.79 82.4125 1267.66 84.5417 1265.23 84.5417C1262.8 84.5417 1260.67 82.4125 1260.67 79.9792C1260.67 77.5458 1262.8 75.4167 1265.23 75.4167Z" fill="white"/>
</svg>
