<svg width="1363" height="297" viewBox="0 0 1363 297" fill="none" xmlns="http://www.w3.org/2000/svg">
<path d="M0 15C0 6.71573 6.71573 0 15 0H37V297H15C6.71573 297 0 290.284 0 282V15Z" fill="#3A5A40"/>
<path d="M37 0H1066V297H37V0Z" fill="#F0F0F0"/>
<path d="M105.639 67.1426V49.4062H110.895V67.1426C110.895 68.8535 110.52 70.3242 109.77 71.5547C109.02 72.7734 107.994 73.7109 106.693 74.3672C105.404 75.0234 103.951 75.3516 102.334 75.3516C100.658 75.3516 99.1758 75.0703 97.8867 74.5078C96.5977 73.9453 95.584 73.084 94.8457 71.9238C94.1074 70.752 93.7383 69.2695 93.7383 67.4766H99.0293C99.0293 68.4141 99.1582 69.1582 99.416 69.709C99.6855 70.2598 100.066 70.6523 100.559 70.8867C101.051 71.1211 101.643 71.2383 102.334 71.2383C103.002 71.2383 103.582 71.0801 104.074 70.7637C104.566 70.4473 104.947 69.9844 105.217 69.375C105.498 68.7656 105.639 68.0215 105.639 67.1426ZM114.27 65.6836V65.3145C114.27 63.9199 114.469 62.6367 114.867 61.4648C115.266 60.2812 115.846 59.2559 116.607 58.3887C117.369 57.5215 118.307 56.8477 119.42 56.3672C120.533 55.875 121.811 55.6289 123.252 55.6289C124.693 55.6289 125.977 55.875 127.102 56.3672C128.227 56.8477 129.17 57.5215 129.932 58.3887C130.705 59.2559 131.291 60.2812 131.689 61.4648C132.088 62.6367 132.287 63.9199 132.287 65.3145V65.6836C132.287 67.0664 132.088 68.3496 131.689 69.5332C131.291 70.7051 130.705 71.7305 129.932 72.6094C129.17 73.4766 128.232 74.1504 127.119 74.6309C126.006 75.1113 124.729 75.3516 123.287 75.3516C121.846 75.3516 120.562 75.1113 119.438 74.6309C118.324 74.1504 117.381 73.4766 116.607 72.6094C115.846 71.7305 115.266 70.7051 114.867 69.5332C114.469 68.3496 114.27 67.0664 114.27 65.6836ZM119.332 65.3145V65.6836C119.332 66.4805 119.402 67.2246 119.543 67.916C119.684 68.6074 119.906 69.2168 120.211 69.7441C120.527 70.2598 120.938 70.6641 121.441 70.957C121.945 71.25 122.561 71.3965 123.287 71.3965C123.99 71.3965 124.594 71.25 125.098 70.957C125.602 70.6641 126.006 70.2598 126.311 69.7441C126.615 69.2168 126.838 68.6074 126.979 67.916C127.131 67.2246 127.207 66.4805 127.207 65.6836V65.3145C127.207 64.541 127.131 63.8145 126.979 63.1348C126.838 62.4434 126.609 61.834 126.293 61.3066C125.988 60.7676 125.584 60.3457 125.08 60.041C124.576 59.7363 123.967 59.584 123.252 59.584C122.537 59.584 121.928 59.7363 121.424 60.041C120.932 60.3457 120.527 60.7676 120.211 61.3066C119.906 61.834 119.684 62.4434 119.543 63.1348C119.402 63.8145 119.332 64.541 119.332 65.3145ZM146.648 70.4473V55.9805H151.711V75H146.947L146.648 70.4473ZM147.211 66.5449L148.705 66.5098C148.705 67.7754 148.559 68.9531 148.266 70.043C147.973 71.1211 147.533 72.0586 146.947 72.8555C146.361 73.6406 145.623 74.2559 144.732 74.7012C143.842 75.1348 142.793 75.3516 141.586 75.3516C140.66 75.3516 139.805 75.2227 139.02 74.9648C138.246 74.6953 137.578 74.2793 137.016 73.7168C136.465 73.1426 136.031 72.4102 135.715 71.5195C135.41 70.6172 135.258 69.5332 135.258 68.2676V55.9805H140.32V68.3027C140.32 68.8652 140.385 69.3398 140.514 69.7266C140.654 70.1133 140.848 70.4297 141.094 70.6758C141.34 70.9219 141.627 71.0977 141.955 71.2031C142.295 71.3086 142.67 71.3613 143.08 71.3613C144.123 71.3613 144.943 71.1504 145.541 70.7285C146.15 70.3066 146.578 69.7324 146.824 69.0059C147.082 68.2676 147.211 67.4473 147.211 66.5449ZM166.811 70.8516V48H171.908V75H167.32L166.811 70.8516ZM154.787 65.7188V65.3496C154.787 63.8965 154.951 62.5781 155.279 61.3945C155.607 60.1992 156.088 59.1738 156.721 58.3184C157.354 57.4629 158.133 56.8008 159.059 56.332C159.984 55.8633 161.039 55.6289 162.223 55.6289C163.336 55.6289 164.309 55.8633 165.141 56.332C165.984 56.8008 166.699 57.4688 167.285 58.3359C167.883 59.1914 168.363 60.2051 168.727 61.377C169.09 62.5371 169.354 63.8086 169.518 65.1914V66C169.354 67.3242 169.09 68.5547 168.727 69.6914C168.363 70.8281 167.883 71.8242 167.285 72.6797C166.699 73.5234 165.984 74.1797 165.141 74.6484C164.297 75.1172 163.312 75.3516 162.188 75.3516C161.004 75.3516 159.949 75.1113 159.023 74.6309C158.109 74.1504 157.336 73.4766 156.703 72.6094C156.082 71.7422 155.607 70.7227 155.279 69.5508C154.951 68.3789 154.787 67.1016 154.787 65.7188ZM159.85 65.3496V65.7188C159.85 66.5039 159.908 67.2363 160.025 67.916C160.154 68.5957 160.359 69.1992 160.641 69.7266C160.934 70.2422 161.309 70.6465 161.766 70.9395C162.234 71.2207 162.803 71.3613 163.471 71.3613C164.338 71.3613 165.053 71.168 165.615 70.7812C166.178 70.3828 166.605 69.8379 166.898 69.1465C167.203 68.4551 167.379 67.6582 167.426 66.7559V64.4531C167.391 63.7148 167.285 63.0527 167.109 62.4668C166.945 61.8691 166.699 61.3594 166.371 60.9375C166.055 60.5156 165.656 60.1875 165.176 59.9531C164.707 59.7188 164.15 59.6016 163.506 59.6016C162.85 59.6016 162.287 59.7539 161.818 60.0586C161.35 60.3516 160.969 60.7559 160.676 61.2715C160.395 61.7871 160.184 62.3965 160.043 63.0996C159.914 63.791 159.85 64.541 159.85 65.3496ZM195.551 53.7832L188.59 75H182.982L192.492 49.4062H196.061L195.551 53.7832ZM201.334 75L194.355 53.7832L193.793 49.4062H197.396L206.959 75H201.334ZM201.018 65.4727V69.6035H187.5V65.4727H201.018ZM209.016 48H214.078V70.6406L213.568 75H209.016V48ZM226.119 65.2969V65.666C226.119 67.084 225.967 68.3848 225.662 69.5684C225.369 70.752 224.912 71.7773 224.291 72.6445C223.67 73.5 222.896 74.168 221.971 74.6484C221.057 75.1172 219.979 75.3516 218.736 75.3516C217.576 75.3516 216.568 75.1172 215.713 74.6484C214.869 74.1797 214.16 73.5176 213.586 72.6621C213.012 71.8066 212.549 70.8047 212.197 69.6562C211.846 68.5078 211.582 67.2539 211.406 65.8945V65.0859C211.582 63.7266 211.846 62.4727 212.197 61.3242C212.549 60.1758 213.012 59.1738 213.586 58.3184C214.16 57.4629 214.869 56.8008 215.713 56.332C216.557 55.8633 217.553 55.6289 218.701 55.6289C219.955 55.6289 221.045 55.8691 221.971 56.3496C222.908 56.8184 223.682 57.4863 224.291 58.3535C224.912 59.209 225.369 60.2285 225.662 61.4121C225.967 62.584 226.119 63.8789 226.119 65.2969ZM221.057 65.666V65.2969C221.057 64.5234 220.998 63.7969 220.881 63.1172C220.775 62.4258 220.588 61.8223 220.318 61.3066C220.049 60.7793 219.68 60.3633 219.211 60.0586C218.754 59.7539 218.162 59.6016 217.436 59.6016C216.744 59.6016 216.158 59.7188 215.678 59.9531C215.197 60.1875 214.799 60.5156 214.482 60.9375C214.178 61.3594 213.949 61.8633 213.797 62.4492C213.645 63.0234 213.551 63.6562 213.516 64.3477V66.6504C213.551 67.5762 213.703 68.3965 213.973 69.1113C214.254 69.8145 214.676 70.3711 215.238 70.7812C215.812 71.1797 216.557 71.3789 217.471 71.3789C218.186 71.3789 218.777 71.2383 219.246 70.957C219.715 70.6758 220.078 70.2773 220.336 69.7617C220.605 69.2461 220.793 68.6426 220.898 67.9512C221.004 67.248 221.057 66.4863 221.057 65.666ZM234.609 55.9805V75H229.529V55.9805H234.609ZM229.213 51.0234C229.213 50.2852 229.471 49.6758 229.986 49.1953C230.502 48.7148 231.193 48.4746 232.061 48.4746C232.916 48.4746 233.602 48.7148 234.117 49.1953C234.645 49.6758 234.908 50.2852 234.908 51.0234C234.908 51.7617 234.645 52.3711 234.117 52.8516C233.602 53.332 232.916 53.5723 232.061 53.5723C231.193 53.5723 230.502 53.332 229.986 52.8516C229.471 52.3711 229.213 51.7617 229.213 51.0234ZM265.143 59.8301V63.9434H251.783V59.8301H265.143ZM253.348 49.4062V75H248.074V49.4062H253.348ZM268.904 49.4062V75H263.648V49.4062H268.904ZM283.441 70.7109V62.2383C283.441 61.6289 283.342 61.1074 283.143 60.6738C282.943 60.2285 282.633 59.8828 282.211 59.6367C281.801 59.3906 281.268 59.2676 280.611 59.2676C280.049 59.2676 279.562 59.3672 279.152 59.5664C278.742 59.7539 278.426 60.0293 278.203 60.3926C277.98 60.7441 277.869 61.1602 277.869 61.6406H272.807C272.807 60.832 272.994 60.0645 273.369 59.3379C273.744 58.6113 274.289 57.9727 275.004 57.4219C275.719 56.8594 276.568 56.4199 277.553 56.1035C278.549 55.7871 279.662 55.6289 280.893 55.6289C282.369 55.6289 283.682 55.875 284.83 56.3672C285.979 56.8594 286.881 57.5977 287.537 58.582C288.205 59.5664 288.539 60.7969 288.539 62.2734V70.4121C288.539 71.4551 288.604 72.3105 288.732 72.9785C288.861 73.6348 289.049 74.209 289.295 74.7012V75H284.18C283.934 74.4844 283.746 73.8398 283.617 73.0664C283.5 72.2812 283.441 71.4961 283.441 70.7109ZM284.109 63.416L284.145 66.2812H281.314C280.646 66.2812 280.066 66.3574 279.574 66.5098C279.082 66.6621 278.678 66.8789 278.361 67.1602C278.045 67.4297 277.811 67.7461 277.658 68.1094C277.518 68.4727 277.447 68.8711 277.447 69.3047C277.447 69.7383 277.547 70.1309 277.746 70.4824C277.945 70.8223 278.232 71.0918 278.607 71.291C278.982 71.4785 279.422 71.5723 279.926 71.5723C280.688 71.5723 281.35 71.4199 281.912 71.1152C282.475 70.8105 282.908 70.4355 283.213 69.9902C283.529 69.5449 283.693 69.123 283.705 68.7246L285.041 70.8691C284.854 71.3496 284.596 71.8477 284.268 72.3633C283.951 72.8789 283.547 73.3652 283.055 73.8223C282.562 74.2676 281.971 74.6367 281.279 74.9297C280.588 75.2109 279.768 75.3516 278.818 75.3516C277.611 75.3516 276.516 75.1113 275.531 74.6309C274.559 74.1387 273.785 73.4648 273.211 72.6094C272.648 71.7422 272.367 70.7578 272.367 69.6562C272.367 68.6602 272.555 67.7754 272.93 67.002C273.305 66.2285 273.855 65.5781 274.582 65.0508C275.32 64.5117 276.24 64.1074 277.342 63.8379C278.443 63.5566 279.721 63.416 281.174 63.416H284.109ZM297.785 55.9805V75H292.705V55.9805H297.785ZM292.389 51.0234C292.389 50.2852 292.646 49.6758 293.162 49.1953C293.678 48.7148 294.369 48.4746 295.236 48.4746C296.092 48.4746 296.777 48.7148 297.293 49.1953C297.82 49.6758 298.084 50.2852 298.084 51.0234C298.084 51.7617 297.82 52.3711 297.293 52.8516C296.777 53.332 296.092 53.5723 295.236 53.5723C294.369 53.5723 293.678 53.332 293.162 52.8516C292.646 52.3711 292.389 51.7617 292.389 51.0234ZM313.201 70.8516V48H318.299V75H313.711L313.201 70.8516ZM301.178 65.7188V65.3496C301.178 63.8965 301.342 62.5781 301.67 61.3945C301.998 60.1992 302.479 59.1738 303.111 58.3184C303.744 57.4629 304.523 56.8008 305.449 56.332C306.375 55.8633 307.43 55.6289 308.613 55.6289C309.727 55.6289 310.699 55.8633 311.531 56.332C312.375 56.8008 313.09 57.4688 313.676 58.3359C314.273 59.1914 314.754 60.2051 315.117 61.377C315.48 62.5371 315.744 63.8086 315.908 65.1914V66C315.744 67.3242 315.48 68.5547 315.117 69.6914C314.754 70.8281 314.273 71.8242 313.676 72.6797C313.09 73.5234 312.375 74.1797 311.531 74.6484C310.688 75.1172 309.703 75.3516 308.578 75.3516C307.395 75.3516 306.34 75.1113 305.414 74.6309C304.5 74.1504 303.727 73.4766 303.094 72.6094C302.473 71.7422 301.998 70.7227 301.67 69.5508C301.342 68.3789 301.178 67.1016 301.178 65.7188ZM306.24 65.3496V65.7188C306.24 66.5039 306.299 67.2363 306.416 67.916C306.545 68.5957 306.75 69.1992 307.031 69.7266C307.324 70.2422 307.699 70.6465 308.156 70.9395C308.625 71.2207 309.193 71.3613 309.861 71.3613C310.729 71.3613 311.443 71.168 312.006 70.7812C312.568 70.3828 312.996 69.8379 313.289 69.1465C313.594 68.4551 313.77 67.6582 313.816 66.7559V64.4531C313.781 63.7148 313.676 63.0527 313.5 62.4668C313.336 61.8691 313.09 61.3594 312.762 60.9375C312.445 60.5156 312.047 60.1875 311.566 59.9531C311.098 59.7188 310.541 59.6016 309.896 59.6016C309.24 59.6016 308.678 59.7539 308.209 60.0586C307.74 60.3516 307.359 60.7559 307.066 61.2715C306.785 61.7871 306.574 62.3965 306.434 63.0996C306.305 63.791 306.24 64.541 306.24 65.3496ZM332.52 70.7109V62.2383C332.52 61.6289 332.42 61.1074 332.221 60.6738C332.021 60.2285 331.711 59.8828 331.289 59.6367C330.879 59.3906 330.346 59.2676 329.689 59.2676C329.127 59.2676 328.641 59.3672 328.23 59.5664C327.82 59.7539 327.504 60.0293 327.281 60.3926C327.059 60.7441 326.947 61.1602 326.947 61.6406H321.885C321.885 60.832 322.072 60.0645 322.447 59.3379C322.822 58.6113 323.367 57.9727 324.082 57.4219C324.797 56.8594 325.646 56.4199 326.631 56.1035C327.627 55.7871 328.74 55.6289 329.971 55.6289C331.447 55.6289 332.76 55.875 333.908 56.3672C335.057 56.8594 335.959 57.5977 336.615 58.582C337.283 59.5664 337.617 60.7969 337.617 62.2734V70.4121C337.617 71.4551 337.682 72.3105 337.811 72.9785C337.939 73.6348 338.127 74.209 338.373 74.7012V75H333.258C333.012 74.4844 332.824 73.8398 332.695 73.0664C332.578 72.2812 332.52 71.4961 332.52 70.7109ZM333.188 63.416L333.223 66.2812H330.393C329.725 66.2812 329.145 66.3574 328.652 66.5098C328.16 66.6621 327.756 66.8789 327.439 67.1602C327.123 67.4297 326.889 67.7461 326.736 68.1094C326.596 68.4727 326.525 68.8711 326.525 69.3047C326.525 69.7383 326.625 70.1309 326.824 70.4824C327.023 70.8223 327.311 71.0918 327.686 71.291C328.061 71.4785 328.5 71.5723 329.004 71.5723C329.766 71.5723 330.428 71.4199 330.99 71.1152C331.553 70.8105 331.986 70.4355 332.291 69.9902C332.607 69.5449 332.771 69.123 332.783 68.7246L334.119 70.8691C333.932 71.3496 333.674 71.8477 333.346 72.3633C333.029 72.8789 332.625 73.3652 332.133 73.8223C331.641 74.2676 331.049 74.6367 330.357 74.9297C329.666 75.2109 328.846 75.3516 327.896 75.3516C326.689 75.3516 325.594 75.1113 324.609 74.6309C323.637 74.1387 322.863 73.4648 322.289 72.6094C321.727 71.7422 321.445 70.7578 321.445 69.6562C321.445 68.6602 321.633 67.7754 322.008 67.002C322.383 66.2285 322.934 65.5781 323.66 65.0508C324.398 64.5117 325.318 64.1074 326.42 63.8379C327.521 63.5566 328.799 63.416 330.252 63.416H333.188ZM346.582 60.1289V75H341.52V55.9805H346.283L346.582 60.1289ZM352.312 55.8574L352.225 60.5508C351.979 60.5156 351.68 60.4863 351.328 60.4629C350.988 60.4277 350.678 60.4102 350.396 60.4102C349.682 60.4102 349.061 60.5039 348.533 60.6914C348.018 60.8672 347.584 61.1309 347.232 61.4824C346.893 61.834 346.635 62.2617 346.459 62.7656C346.295 63.2695 346.201 63.8438 346.178 64.4883L345.158 64.1719C345.158 62.9414 345.281 61.8105 345.527 60.7793C345.773 59.7363 346.131 58.8281 346.6 58.0547C347.08 57.2812 347.666 56.6836 348.357 56.2617C349.049 55.8398 349.84 55.6289 350.73 55.6289C351.012 55.6289 351.299 55.6523 351.592 55.6992C351.885 55.7344 352.125 55.7871 352.312 55.8574Z" fill="#888888"/>
<path d="M115.312 100.188V140H105.715V100.188H115.312ZM127.289 100.188V107.598H94.0117V100.188H127.289ZM142.793 140.547C140.387 140.547 138.236 140.173 136.34 139.426C134.444 138.66 132.84 137.612 131.527 136.281C130.233 134.951 129.24 133.419 128.547 131.688C127.872 129.956 127.535 128.124 127.535 126.191V125.152C127.535 122.983 127.836 120.978 128.438 119.137C129.039 117.277 129.932 115.655 131.117 114.27C132.302 112.884 133.788 111.809 135.574 111.043C137.361 110.259 139.439 109.867 141.809 109.867C143.905 109.867 145.783 110.204 147.441 110.879C149.1 111.553 150.504 112.52 151.652 113.777C152.819 115.035 153.703 116.557 154.305 118.344C154.924 120.13 155.234 122.135 155.234 124.359V128.105H131.062V122.336H146.238V121.625C146.257 120.641 146.083 119.802 145.719 119.109C145.372 118.417 144.862 117.888 144.188 117.523C143.513 117.159 142.693 116.977 141.727 116.977C140.724 116.977 139.895 117.195 139.238 117.633C138.6 118.07 138.099 118.672 137.734 119.438C137.388 120.185 137.142 121.051 136.996 122.035C136.85 123.02 136.777 124.059 136.777 125.152V126.191C136.777 127.285 136.923 128.279 137.215 129.172C137.525 130.065 137.962 130.831 138.527 131.469C139.111 132.089 139.803 132.572 140.605 132.918C141.426 133.264 142.355 133.438 143.395 133.438C144.652 133.438 145.892 133.201 147.113 132.727C148.335 132.253 149.383 131.469 150.258 130.375L154.441 135.352C153.84 136.208 152.983 137.038 151.871 137.84C150.777 138.642 149.465 139.298 147.934 139.809C146.402 140.301 144.689 140.547 142.793 140.547ZM168.277 117.742V140H159.062V110.414H167.676L168.277 117.742ZM177.027 110.195L176.863 118.754C176.499 118.717 176.007 118.672 175.387 118.617C174.767 118.562 174.247 118.535 173.828 118.535C172.753 118.535 171.823 118.663 171.039 118.918C170.273 119.155 169.635 119.52 169.125 120.012C168.633 120.486 168.268 121.087 168.031 121.816C167.812 122.546 167.712 123.393 167.73 124.359L166.062 123.266C166.062 121.279 166.254 119.474 166.637 117.852C167.038 116.211 167.603 114.798 168.332 113.613C169.061 112.41 169.945 111.49 170.984 110.852C172.023 110.195 173.19 109.867 174.484 109.867C174.94 109.867 175.387 109.895 175.824 109.949C176.28 110.004 176.681 110.086 177.027 110.195ZM189.496 117.742V140H180.281V110.414H188.895L189.496 117.742ZM198.246 110.195L198.082 118.754C197.717 118.717 197.225 118.672 196.605 118.617C195.986 118.562 195.466 118.535 195.047 118.535C193.971 118.535 193.042 118.663 192.258 118.918C191.492 119.155 190.854 119.52 190.344 120.012C189.852 120.486 189.487 121.087 189.25 121.816C189.031 122.546 188.931 123.393 188.949 124.359L187.281 123.266C187.281 121.279 187.473 119.474 187.855 117.852C188.257 116.211 188.822 114.798 189.551 113.613C190.28 112.41 191.164 111.49 192.203 110.852C193.242 110.195 194.409 109.867 195.703 109.867C196.159 109.867 196.605 109.895 197.043 109.949C197.499 110.004 197.9 110.086 198.246 110.195ZM218.727 108.555L209.02 140H198.711L213.34 100.188H219.875L218.727 108.555ZM226.766 140L217.031 108.555L215.773 100.188H222.391L237.102 140H226.766ZM226.383 125.152V132.562H205.957V125.152H226.383ZM249.324 98V140H240.082V98H249.324ZM269.34 140.547C266.934 140.547 264.783 140.173 262.887 139.426C260.991 138.66 259.387 137.612 258.074 136.281C256.78 134.951 255.786 133.419 255.094 131.688C254.419 129.956 254.082 128.124 254.082 126.191V125.152C254.082 122.983 254.383 120.978 254.984 119.137C255.586 117.277 256.479 115.655 257.664 114.27C258.849 112.884 260.335 111.809 262.121 111.043C263.908 110.259 265.986 109.867 268.355 109.867C270.452 109.867 272.329 110.204 273.988 110.879C275.647 111.553 277.051 112.52 278.199 113.777C279.366 115.035 280.25 116.557 280.852 118.344C281.471 120.13 281.781 122.135 281.781 124.359V128.105H257.609V122.336H272.785V121.625C272.803 120.641 272.63 119.802 272.266 119.109C271.919 118.417 271.409 117.888 270.734 117.523C270.06 117.159 269.24 116.977 268.273 116.977C267.271 116.977 266.441 117.195 265.785 117.633C265.147 118.07 264.646 118.672 264.281 119.438C263.935 120.185 263.689 121.051 263.543 122.035C263.397 123.02 263.324 124.059 263.324 125.152V126.191C263.324 127.285 263.47 128.279 263.762 129.172C264.072 130.065 264.509 130.831 265.074 131.469C265.658 132.089 266.35 132.572 267.152 132.918C267.973 133.264 268.902 133.438 269.941 133.438C271.199 133.438 272.439 133.201 273.66 132.727C274.882 132.253 275.93 131.469 276.805 130.375L280.988 135.352C280.387 136.208 279.53 137.038 278.418 137.84C277.324 138.642 276.012 139.298 274.48 139.809C272.949 140.301 271.236 140.547 269.34 140.547ZM294.824 117.742V140H285.609V110.414H294.223L294.824 117.742ZM303.574 110.195L303.41 118.754C303.046 118.717 302.553 118.672 301.934 118.617C301.314 118.562 300.794 118.535 300.375 118.535C299.299 118.535 298.37 118.663 297.586 118.918C296.82 119.155 296.182 119.52 295.672 120.012C295.18 120.486 294.815 121.087 294.578 121.816C294.359 122.546 294.259 123.393 294.277 124.359L292.609 123.266C292.609 121.279 292.801 119.474 293.184 117.852C293.585 116.211 294.15 114.798 294.879 113.613C295.608 112.41 296.492 111.49 297.531 110.852C298.57 110.195 299.737 109.867 301.031 109.867C301.487 109.867 301.934 109.895 302.371 109.949C302.827 110.004 303.228 110.086 303.574 110.195ZM323.699 110.414V116.812H305.871V110.414H323.699ZM309.617 103.059H318.832V130.348C318.832 131.132 318.923 131.742 319.105 132.18C319.288 132.599 319.598 132.9 320.035 133.082C320.491 133.246 321.092 133.328 321.84 133.328C322.368 133.328 322.806 133.319 323.152 133.301C323.499 133.264 323.827 133.219 324.137 133.164V139.754C323.353 140.009 322.533 140.201 321.676 140.328C320.819 140.474 319.908 140.547 318.941 140.547C316.973 140.547 315.286 140.237 313.883 139.617C312.497 138.997 311.44 138.022 310.711 136.691C309.982 135.361 309.617 133.629 309.617 131.496V103.059Z" fill="black"/>
<rect x="93" y="178" width="917" height="77" rx="10" fill="#D3D3D3"/>
<rect x="111" y="196" width="102" height="41" rx="3" fill="#424242"/>
<rect x="111" y="196" width="102" height="41" rx="3" stroke="#424242" stroke-width="4"/>
<path d="M139.166 218.658H135.984V216.276H139.166C139.6 216.276 139.951 216.203 140.221 216.057C140.49 215.91 140.687 215.708 140.81 215.45C140.938 215.187 141.003 214.891 141.003 214.562C141.003 214.211 140.938 213.886 140.81 213.587C140.687 213.288 140.49 213.048 140.221 212.866C139.951 212.679 139.6 212.585 139.166 212.585H137.145V223H134.06V210.203H139.166C140.191 210.203 141.073 210.391 141.812 210.766C142.556 211.141 143.127 211.656 143.525 212.312C143.924 212.963 144.123 213.707 144.123 214.545C144.123 215.371 143.924 216.092 143.525 216.707C143.127 217.322 142.556 217.803 141.812 218.148C141.073 218.488 140.191 218.658 139.166 218.658ZM148.702 221.884L151.163 213.49H154.345L150.521 224.415C150.439 224.655 150.331 224.913 150.196 225.188C150.062 225.47 149.877 225.736 149.643 225.988C149.408 226.24 149.106 226.445 148.737 226.604C148.374 226.762 147.923 226.841 147.384 226.841C147.097 226.841 146.886 226.826 146.751 226.797C146.622 226.773 146.423 226.729 146.153 226.665V224.547C146.229 224.547 146.294 224.547 146.347 224.547C146.405 224.547 146.47 224.547 146.54 224.547C146.856 224.547 147.108 224.515 147.296 224.45C147.489 224.386 147.636 224.292 147.735 224.169C147.841 224.046 147.923 223.896 147.981 223.721L148.702 221.884ZM148.078 213.49L149.95 220.144L150.275 223.281H148.289L144.905 213.49H148.078ZM160.128 213.49V215.547H154.397V213.49H160.128ZM155.602 211.126H158.563V219.897C158.563 220.149 158.593 220.346 158.651 220.486C158.71 220.621 158.81 220.718 158.95 220.776C159.097 220.829 159.29 220.855 159.53 220.855C159.7 220.855 159.841 220.853 159.952 220.847C160.063 220.835 160.169 220.82 160.269 220.803V222.921C160.017 223.003 159.753 223.064 159.478 223.105C159.202 223.152 158.909 223.176 158.599 223.176C157.966 223.176 157.424 223.076 156.973 222.877C156.527 222.678 156.188 222.364 155.953 221.937C155.719 221.509 155.602 220.952 155.602 220.267V211.126ZM164.206 209.5V223H161.244V209.5H164.206ZM163.854 217.92L163.16 217.938C163.16 217.27 163.242 216.654 163.406 216.092C163.57 215.529 163.805 215.04 164.109 214.624C164.414 214.208 164.78 213.886 165.208 213.657C165.636 213.429 166.11 213.314 166.632 213.314C167.101 213.314 167.528 213.382 167.915 213.517C168.308 213.651 168.645 213.868 168.926 214.167C169.213 214.466 169.433 214.855 169.585 215.336C169.743 215.816 169.822 216.402 169.822 217.094V223H166.843V217.076C166.843 216.689 166.787 216.391 166.676 216.18C166.57 215.963 166.418 215.813 166.219 215.731C166.02 215.644 165.776 215.6 165.489 215.6C165.144 215.6 164.862 215.658 164.646 215.775C164.429 215.893 164.262 216.057 164.145 216.268C164.033 216.473 163.957 216.716 163.916 216.997C163.875 217.278 163.854 217.586 163.854 217.92ZM171.097 218.342V218.157C171.097 217.46 171.196 216.818 171.396 216.232C171.595 215.641 171.888 215.128 172.274 214.694C172.661 214.261 173.139 213.924 173.707 213.684C174.275 213.438 174.932 213.314 175.676 213.314C176.426 213.314 177.085 213.438 177.653 213.684C178.228 213.924 178.708 214.261 179.095 214.694C179.481 215.128 179.774 215.641 179.974 216.232C180.173 216.818 180.272 217.46 180.272 218.157V218.342C180.272 219.033 180.173 219.675 179.974 220.267C179.774 220.853 179.481 221.365 179.095 221.805C178.708 222.238 178.23 222.575 177.662 222.815C177.094 223.056 176.438 223.176 175.693 223.176C174.949 223.176 174.29 223.056 173.716 222.815C173.142 222.575 172.661 222.238 172.274 221.805C171.888 221.365 171.595 220.853 171.396 220.267C171.196 219.675 171.097 219.033 171.097 218.342ZM174.059 218.157V218.342C174.059 218.699 174.085 219.033 174.138 219.344C174.19 219.654 174.278 219.927 174.401 220.161C174.524 220.39 174.691 220.568 174.902 220.697C175.113 220.826 175.377 220.891 175.693 220.891C176.004 220.891 176.262 220.826 176.467 220.697C176.678 220.568 176.845 220.39 176.968 220.161C177.091 219.927 177.179 219.654 177.231 219.344C177.284 219.033 177.311 218.699 177.311 218.342V218.157C177.311 217.812 177.284 217.486 177.231 217.182C177.179 216.871 177.091 216.599 176.968 216.364C176.845 216.124 176.678 215.937 176.467 215.802C176.256 215.667 175.992 215.6 175.676 215.6C175.365 215.6 175.104 215.667 174.894 215.802C174.688 215.937 174.524 216.124 174.401 216.364C174.278 216.599 174.19 216.871 174.138 217.182C174.085 217.486 174.059 217.812 174.059 218.157ZM184.5 215.521V223H181.538V213.49H184.315L184.5 215.521ZM184.148 217.92L183.454 217.938C183.454 217.211 183.542 216.563 183.718 215.995C183.894 215.421 184.143 214.935 184.465 214.536C184.787 214.138 185.171 213.836 185.616 213.631C186.067 213.42 186.568 213.314 187.119 213.314C187.559 213.314 187.96 213.379 188.323 213.508C188.692 213.637 189.009 213.845 189.272 214.132C189.542 214.419 189.747 214.8 189.888 215.274C190.034 215.743 190.107 216.323 190.107 217.015V223H187.128V217.006C187.128 216.625 187.075 216.335 186.97 216.136C186.864 215.931 186.712 215.79 186.513 215.714C186.313 215.638 186.07 215.6 185.783 215.6C185.479 215.6 185.221 215.658 185.01 215.775C184.799 215.893 184.629 216.057 184.5 216.268C184.377 216.473 184.286 216.716 184.228 216.997C184.175 217.278 184.148 217.586 184.148 217.92Z" fill="white"/>
<rect x="233" y="196" width="78" height="41" rx="3" fill="#424242"/>
<rect x="233" y="196" width="78" height="41" rx="3" stroke="#424242" stroke-width="4"/>
<path d="M262.842 219.599C262.842 219.399 262.812 219.221 262.754 219.062C262.695 218.898 262.587 218.746 262.429 218.605C262.271 218.465 262.042 218.324 261.743 218.184C261.45 218.037 261.063 217.885 260.583 217.727C260.021 217.539 259.479 217.328 258.957 217.094C258.436 216.854 257.97 216.575 257.56 216.259C257.149 215.937 256.824 215.562 256.584 215.134C256.344 214.7 256.224 214.196 256.224 213.622C256.224 213.071 256.347 212.576 256.593 212.137C256.839 211.691 257.182 211.313 257.621 211.003C258.066 210.687 258.588 210.446 259.186 210.282C259.783 210.112 260.437 210.027 261.146 210.027C262.083 210.027 262.909 210.191 263.624 210.52C264.345 210.842 264.907 211.302 265.312 211.899C265.722 212.491 265.927 213.191 265.927 214H262.859C262.859 213.678 262.792 213.394 262.657 213.147C262.528 212.901 262.332 212.708 262.068 212.567C261.805 212.427 261.474 212.356 261.075 212.356C260.688 212.356 260.363 212.415 260.1 212.532C259.836 212.649 259.637 212.808 259.502 213.007C259.367 213.2 259.3 213.414 259.3 213.648C259.3 213.842 259.353 214.018 259.458 214.176C259.569 214.328 259.725 214.472 259.924 214.606C260.129 214.741 260.375 214.87 260.662 214.993C260.955 215.116 261.283 215.236 261.646 215.354C262.326 215.57 262.93 215.813 263.457 216.083C263.99 216.347 264.438 216.648 264.802 216.988C265.171 217.322 265.449 217.703 265.637 218.131C265.83 218.559 265.927 219.042 265.927 219.581C265.927 220.155 265.815 220.665 265.593 221.11C265.37 221.556 265.051 221.934 264.635 222.244C264.219 222.549 263.721 222.78 263.141 222.938C262.561 223.097 261.913 223.176 261.198 223.176C260.542 223.176 259.895 223.094 259.256 222.93C258.623 222.76 258.049 222.502 257.533 222.156C257.018 221.805 256.604 221.356 256.294 220.812C255.989 220.261 255.837 219.607 255.837 218.852H258.931C258.931 219.227 258.98 219.543 259.08 219.801C259.18 220.059 259.326 220.267 259.52 220.425C259.713 220.577 259.95 220.688 260.231 220.759C260.513 220.823 260.835 220.855 261.198 220.855C261.591 220.855 261.907 220.8 262.147 220.688C262.388 220.571 262.563 220.419 262.675 220.231C262.786 220.038 262.842 219.827 262.842 219.599ZM274.654 220.891L278.223 223.721L276.307 225.338L272.8 222.508L274.654 220.891ZM278.372 216.347V216.865C278.372 217.844 278.234 218.723 277.959 219.502C277.689 220.275 277.303 220.938 276.799 221.488C276.301 222.033 275.712 222.452 275.032 222.745C274.353 223.032 273.603 223.176 272.782 223.176C271.956 223.176 271.2 223.032 270.515 222.745C269.835 222.452 269.243 222.033 268.739 221.488C268.241 220.938 267.854 220.275 267.579 219.502C267.31 218.723 267.175 217.844 267.175 216.865V216.347C267.175 215.368 267.31 214.489 267.579 213.71C267.854 212.931 268.238 212.269 268.73 211.724C269.229 211.173 269.817 210.754 270.497 210.467C271.183 210.174 271.938 210.027 272.765 210.027C273.585 210.027 274.335 210.174 275.015 210.467C275.7 210.754 276.292 211.173 276.79 211.724C277.294 212.269 277.684 212.931 277.959 213.71C278.234 214.489 278.372 215.368 278.372 216.347ZM275.234 216.865V216.329C275.234 215.696 275.179 215.14 275.067 214.659C274.962 214.173 274.804 213.766 274.593 213.438C274.382 213.109 274.121 212.863 273.811 212.699C273.506 212.529 273.157 212.444 272.765 212.444C272.354 212.444 271.997 212.529 271.692 212.699C271.388 212.863 271.133 213.109 270.928 213.438C270.723 213.766 270.567 214.173 270.462 214.659C270.362 215.14 270.312 215.696 270.312 216.329V216.865C270.312 217.492 270.362 218.049 270.462 218.535C270.567 219.016 270.723 219.423 270.928 219.757C271.139 220.091 271.396 220.343 271.701 220.513C272.012 220.683 272.372 220.768 272.782 220.768C273.175 220.768 273.523 220.683 273.828 220.513C274.133 220.343 274.388 220.091 274.593 219.757C274.804 219.423 274.962 219.016 275.067 218.535C275.179 218.049 275.234 217.492 275.234 216.865ZM288.4 220.627V223H281.932V220.627H288.4ZM283.03 210.203V223H279.945V210.203H283.03Z" fill="white"/>
<rect x="331" y="196" width="142" height="41" rx="3" fill="#424242"/>
<rect x="331" y="196" width="142" height="41" rx="3" stroke="#424242" stroke-width="4"/>
<path d="M359.373 218.658H356.191V216.276H359.373C359.807 216.276 360.158 216.203 360.428 216.057C360.697 215.91 360.894 215.708 361.017 215.45C361.146 215.187 361.21 214.891 361.21 214.562C361.21 214.211 361.146 213.886 361.017 213.587C360.894 213.288 360.697 213.048 360.428 212.866C360.158 212.679 359.807 212.585 359.373 212.585H357.352V223H354.267V210.203H359.373C360.398 210.203 361.28 210.391 362.019 210.766C362.763 211.141 363.334 211.656 363.732 212.312C364.131 212.963 364.33 213.707 364.33 214.545C364.33 215.371 364.131 216.092 363.732 216.707C363.334 217.322 362.763 217.803 362.019 218.148C361.28 218.488 360.398 218.658 359.373 218.658ZM365.358 218.342V218.157C365.358 217.46 365.458 216.818 365.657 216.232C365.856 215.641 366.149 215.128 366.536 214.694C366.923 214.261 367.4 213.924 367.969 213.684C368.537 213.438 369.193 213.314 369.938 213.314C370.688 213.314 371.347 213.438 371.915 213.684C372.489 213.924 372.97 214.261 373.356 214.694C373.743 215.128 374.036 215.641 374.235 216.232C374.435 216.818 374.534 217.46 374.534 218.157V218.342C374.534 219.033 374.435 219.675 374.235 220.267C374.036 220.853 373.743 221.365 373.356 221.805C372.97 222.238 372.492 222.575 371.924 222.815C371.355 223.056 370.699 223.176 369.955 223.176C369.211 223.176 368.552 223.056 367.978 222.815C367.403 222.575 366.923 222.238 366.536 221.805C366.149 221.365 365.856 220.853 365.657 220.267C365.458 219.675 365.358 219.033 365.358 218.342ZM368.32 218.157V218.342C368.32 218.699 368.347 219.033 368.399 219.344C368.452 219.654 368.54 219.927 368.663 220.161C368.786 220.39 368.953 220.568 369.164 220.697C369.375 220.826 369.639 220.891 369.955 220.891C370.266 220.891 370.523 220.826 370.729 220.697C370.939 220.568 371.106 220.39 371.229 220.161C371.353 219.927 371.44 219.654 371.493 219.344C371.546 219.033 371.572 218.699 371.572 218.342V218.157C371.572 217.812 371.546 217.486 371.493 217.182C371.44 216.871 371.353 216.599 371.229 216.364C371.106 216.124 370.939 215.937 370.729 215.802C370.518 215.667 370.254 215.6 369.938 215.6C369.627 215.6 369.366 215.667 369.155 215.802C368.95 215.937 368.786 216.124 368.663 216.364C368.54 216.599 368.452 216.871 368.399 217.182C368.347 217.486 368.32 217.812 368.32 218.157ZM380.836 220.328C380.836 220.164 380.78 220.023 380.669 219.906C380.563 219.783 380.376 219.672 380.106 219.572C379.837 219.467 379.459 219.361 378.973 219.256C378.51 219.156 378.073 219.024 377.663 218.86C377.259 218.696 376.904 218.497 376.6 218.263C376.295 218.028 376.055 217.75 375.879 217.428C375.709 217.105 375.624 216.736 375.624 216.32C375.624 215.916 375.709 215.535 375.879 215.178C376.055 214.814 376.31 214.495 376.644 214.22C376.983 213.938 377.396 213.719 377.883 213.561C378.369 213.396 378.923 213.314 379.544 213.314C380.399 213.314 381.138 213.446 381.759 213.71C382.38 213.968 382.857 214.331 383.191 214.8C383.531 215.263 383.701 215.799 383.701 216.408H380.739C380.739 216.168 380.698 215.963 380.616 215.793C380.54 215.623 380.414 215.494 380.238 215.406C380.062 215.312 379.828 215.266 379.535 215.266C379.33 215.266 379.143 215.304 378.973 215.38C378.809 215.456 378.677 215.562 378.577 215.696C378.478 215.831 378.428 215.989 378.428 216.171C378.428 216.3 378.457 216.417 378.516 216.522C378.58 216.622 378.677 216.716 378.806 216.804C378.935 216.886 379.099 216.962 379.298 217.032C379.497 217.097 379.737 217.155 380.019 217.208C380.657 217.325 381.255 217.492 381.812 217.709C382.368 217.926 382.819 218.233 383.165 218.632C383.517 219.03 383.692 219.566 383.692 220.24C383.692 220.662 383.596 221.052 383.402 221.409C383.209 221.761 382.931 222.071 382.567 222.341C382.204 222.604 381.768 222.81 381.258 222.956C380.748 223.103 380.174 223.176 379.535 223.176C378.627 223.176 377.859 223.015 377.232 222.692C376.605 222.364 376.131 221.954 375.809 221.462C375.492 220.964 375.334 220.46 375.334 219.95H378.094C378.105 220.243 378.176 220.483 378.305 220.671C378.439 220.858 378.618 220.996 378.841 221.084C379.063 221.172 379.321 221.216 379.614 221.216C379.884 221.216 380.106 221.178 380.282 221.102C380.464 221.025 380.602 220.923 380.695 220.794C380.789 220.659 380.836 220.504 380.836 220.328ZM390.091 213.49V215.547H384.36V213.49H390.091ZM385.564 211.126H388.526V219.897C388.526 220.149 388.556 220.346 388.614 220.486C388.673 220.621 388.772 220.718 388.913 220.776C389.06 220.829 389.253 220.855 389.493 220.855C389.663 220.855 389.804 220.853 389.915 220.847C390.026 220.835 390.132 220.82 390.231 220.803V222.921C389.979 223.003 389.716 223.064 389.44 223.105C389.165 223.152 388.872 223.176 388.562 223.176C387.929 223.176 387.387 223.076 386.936 222.877C386.49 222.678 386.15 222.364 385.916 221.937C385.682 221.509 385.564 220.952 385.564 220.267V211.126ZM397.245 213.49H399.935V222.631C399.935 223.51 399.732 224.254 399.328 224.863C398.924 225.479 398.358 225.944 397.632 226.261C396.911 226.583 396.067 226.744 395.101 226.744C394.673 226.744 394.236 226.688 393.791 226.577C393.346 226.472 392.93 226.313 392.543 226.103C392.156 225.892 391.831 225.631 391.567 225.32L392.807 223.58C393.047 223.85 393.349 224.078 393.712 224.266C394.075 224.459 394.503 224.556 394.995 224.556C395.423 224.556 395.78 224.479 396.067 224.327C396.36 224.175 396.583 223.952 396.735 223.659C396.888 223.372 396.964 223.023 396.964 222.613V215.74L397.245 213.49ZM390.926 218.359V218.175C390.926 217.454 391.014 216.798 391.189 216.206C391.371 215.608 391.629 215.096 391.963 214.668C392.303 214.234 392.713 213.9 393.193 213.666C393.674 213.432 394.216 213.314 394.819 213.314C395.47 213.314 396.003 213.44 396.419 213.692C396.841 213.938 397.178 214.284 397.43 214.729C397.688 215.175 397.887 215.696 398.027 216.294C398.174 216.886 398.297 217.524 398.396 218.21V218.43C398.297 219.074 398.159 219.684 397.983 220.258C397.813 220.826 397.591 221.33 397.315 221.77C397.04 222.209 396.694 222.555 396.278 222.807C395.868 223.053 395.376 223.176 394.802 223.176C394.204 223.176 393.665 223.056 393.185 222.815C392.71 222.575 392.303 222.238 391.963 221.805C391.629 221.371 391.371 220.861 391.189 220.275C391.014 219.689 390.926 219.051 390.926 218.359ZM393.888 218.175V218.359C393.888 218.717 393.92 219.048 393.984 219.353C394.055 219.657 394.16 219.927 394.301 220.161C394.441 220.39 394.614 220.568 394.819 220.697C395.03 220.826 395.276 220.891 395.558 220.891C395.985 220.891 396.331 220.8 396.595 220.618C396.858 220.437 397.049 220.179 397.166 219.845C397.283 219.511 397.333 219.118 397.315 218.667V217.973C397.327 217.586 397.301 217.246 397.236 216.953C397.172 216.654 397.069 216.405 396.929 216.206C396.794 216.007 396.612 215.857 396.384 215.758C396.161 215.652 395.892 215.6 395.575 215.6C395.3 215.6 395.057 215.664 394.846 215.793C394.635 215.922 394.459 216.104 394.318 216.338C394.178 216.566 394.069 216.839 393.993 217.155C393.923 217.466 393.888 217.806 393.888 218.175ZM404.628 215.846V223H401.666V213.49H404.435L404.628 215.846ZM407.44 213.42L407.388 216.171C407.271 216.159 407.112 216.145 406.913 216.127C406.714 216.109 406.547 216.101 406.412 216.101C406.066 216.101 405.768 216.142 405.516 216.224C405.27 216.3 405.064 216.417 404.9 216.575C404.742 216.728 404.625 216.921 404.549 217.155C404.479 217.39 404.446 217.662 404.452 217.973L403.916 217.621C403.916 216.982 403.978 216.402 404.101 215.881C404.229 215.354 404.411 214.899 404.646 214.519C404.88 214.132 405.164 213.836 405.498 213.631C405.832 213.42 406.207 213.314 406.623 213.314C406.77 213.314 406.913 213.323 407.054 213.341C407.2 213.358 407.329 213.385 407.44 213.42ZM412.89 223.176C412.116 223.176 411.425 223.056 410.815 222.815C410.206 222.569 409.69 222.232 409.269 221.805C408.853 221.377 408.533 220.885 408.311 220.328C408.094 219.771 407.985 219.183 407.985 218.562V218.228C407.985 217.53 408.082 216.886 408.275 216.294C408.469 215.696 408.756 215.175 409.137 214.729C409.518 214.284 409.995 213.938 410.569 213.692C411.144 213.44 411.812 213.314 412.573 213.314C413.247 213.314 413.851 213.423 414.384 213.64C414.917 213.856 415.368 214.167 415.737 214.571C416.112 214.976 416.396 215.465 416.59 216.039C416.789 216.613 416.889 217.258 416.889 217.973V219.177H409.119V217.322H413.997V217.094C414.003 216.777 413.947 216.508 413.83 216.285C413.719 216.062 413.555 215.893 413.338 215.775C413.121 215.658 412.857 215.6 412.547 215.6C412.225 215.6 411.958 215.67 411.747 215.811C411.542 215.951 411.381 216.145 411.264 216.391C411.152 216.631 411.073 216.909 411.026 217.226C410.979 217.542 410.956 217.876 410.956 218.228V218.562C410.956 218.913 411.003 219.232 411.097 219.52C411.196 219.807 411.337 220.053 411.519 220.258C411.706 220.457 411.929 220.612 412.187 220.724C412.45 220.835 412.749 220.891 413.083 220.891C413.487 220.891 413.886 220.814 414.278 220.662C414.671 220.51 415.008 220.258 415.289 219.906L416.634 221.506C416.44 221.781 416.165 222.048 415.808 222.306C415.456 222.563 415.034 222.774 414.542 222.938C414.05 223.097 413.499 223.176 412.89 223.176ZM424.825 219.599C424.825 219.399 424.796 219.221 424.737 219.062C424.679 218.898 424.57 218.746 424.412 218.605C424.254 218.465 424.025 218.324 423.727 218.184C423.434 218.037 423.047 217.885 422.566 217.727C422.004 217.539 421.462 217.328 420.94 217.094C420.419 216.854 419.953 216.575 419.543 216.259C419.133 215.937 418.808 215.562 418.567 215.134C418.327 214.7 418.207 214.196 418.207 213.622C418.207 213.071 418.33 212.576 418.576 212.137C418.822 211.691 419.165 211.313 419.604 211.003C420.05 210.687 420.571 210.446 421.169 210.282C421.767 210.112 422.42 210.027 423.129 210.027C424.066 210.027 424.893 210.191 425.607 210.52C426.328 210.842 426.891 211.302 427.295 211.899C427.705 212.491 427.91 213.191 427.91 214H424.843C424.843 213.678 424.775 213.394 424.641 213.147C424.512 212.901 424.315 212.708 424.052 212.567C423.788 212.427 423.457 212.356 423.059 212.356C422.672 212.356 422.347 212.415 422.083 212.532C421.819 212.649 421.62 212.808 421.485 213.007C421.351 213.2 421.283 213.414 421.283 213.648C421.283 213.842 421.336 214.018 421.441 214.176C421.553 214.328 421.708 214.472 421.907 214.606C422.112 214.741 422.358 214.87 422.646 214.993C422.938 215.116 423.267 215.236 423.63 215.354C424.31 215.57 424.913 215.813 425.44 216.083C425.974 216.347 426.422 216.648 426.785 216.988C427.154 217.322 427.433 217.703 427.62 218.131C427.813 218.559 427.91 219.042 427.91 219.581C427.91 220.155 427.799 220.665 427.576 221.11C427.354 221.556 427.034 221.934 426.618 222.244C426.202 222.549 425.704 222.78 425.124 222.938C424.544 223.097 423.896 223.176 423.182 223.176C422.525 223.176 421.878 223.094 421.239 222.93C420.606 222.76 420.032 222.502 419.517 222.156C419.001 221.805 418.588 221.356 418.277 220.812C417.973 220.261 417.82 219.607 417.82 218.852H420.914C420.914 219.227 420.964 219.543 421.063 219.801C421.163 220.059 421.31 220.267 421.503 220.425C421.696 220.577 421.934 220.688 422.215 220.759C422.496 220.823 422.818 220.855 423.182 220.855C423.574 220.855 423.891 220.8 424.131 220.688C424.371 220.571 424.547 220.419 424.658 220.231C424.77 220.038 424.825 219.827 424.825 219.599ZM436.638 220.891L440.206 223.721L438.29 225.338L434.783 222.508L436.638 220.891ZM440.355 216.347V216.865C440.355 217.844 440.218 218.723 439.942 219.502C439.673 220.275 439.286 220.938 438.782 221.488C438.284 222.033 437.695 222.452 437.016 222.745C436.336 223.032 435.586 223.176 434.766 223.176C433.939 223.176 433.184 223.032 432.498 222.745C431.818 222.452 431.227 222.033 430.723 221.488C430.225 220.938 429.838 220.275 429.562 219.502C429.293 218.723 429.158 217.844 429.158 216.865V216.347C429.158 215.368 429.293 214.489 429.562 213.71C429.838 212.931 430.222 212.269 430.714 211.724C431.212 211.173 431.801 210.754 432.48 210.467C433.166 210.174 433.922 210.027 434.748 210.027C435.568 210.027 436.318 210.174 436.998 210.467C437.684 210.754 438.275 211.173 438.773 211.724C439.277 212.269 439.667 212.931 439.942 213.71C440.218 214.489 440.355 215.368 440.355 216.347ZM437.218 216.865V216.329C437.218 215.696 437.162 215.14 437.051 214.659C436.945 214.173 436.787 213.766 436.576 213.438C436.365 213.109 436.104 212.863 435.794 212.699C435.489 212.529 435.141 212.444 434.748 212.444C434.338 212.444 433.98 212.529 433.676 212.699C433.371 212.863 433.116 213.109 432.911 213.438C432.706 213.766 432.551 214.173 432.445 214.659C432.346 215.14 432.296 215.696 432.296 216.329V216.865C432.296 217.492 432.346 218.049 432.445 218.535C432.551 219.016 432.706 219.423 432.911 219.757C433.122 220.091 433.38 220.343 433.685 220.513C433.995 220.683 434.355 220.768 434.766 220.768C435.158 220.768 435.507 220.683 435.812 220.513C436.116 220.343 436.371 220.091 436.576 219.757C436.787 219.423 436.945 219.016 437.051 218.535C437.162 218.049 437.218 217.492 437.218 216.865ZM450.384 220.627V223H443.915V220.627H450.384ZM445.014 210.203V223H441.929V210.203H445.014Z" fill="white"/>
<rect x="493" y="196" width="117" height="41" rx="3" fill="#424242"/>
<rect x="493" y="196" width="117" height="41" rx="3" stroke="#424242" stroke-width="4"/>
<path d="M521.09 218.658H517.908V216.276H521.09C521.523 216.276 521.875 216.203 522.145 216.057C522.414 215.91 522.61 215.708 522.733 215.45C522.862 215.187 522.927 214.891 522.927 214.562C522.927 214.211 522.862 213.886 522.733 213.587C522.61 213.288 522.414 213.048 522.145 212.866C521.875 212.679 521.523 212.585 521.09 212.585H519.068V223H515.983V210.203H521.09C522.115 210.203 522.997 210.391 523.735 210.766C524.479 211.141 525.051 211.656 525.449 212.312C525.848 212.963 526.047 213.707 526.047 214.545C526.047 215.371 525.848 216.092 525.449 216.707C525.051 217.322 524.479 217.803 523.735 218.148C522.997 218.488 522.115 218.658 521.09 218.658ZM527.075 218.342V218.157C527.075 217.46 527.175 216.818 527.374 216.232C527.573 215.641 527.866 215.128 528.253 214.694C528.64 214.261 529.117 213.924 529.686 213.684C530.254 213.438 530.91 213.314 531.654 213.314C532.404 213.314 533.063 213.438 533.632 213.684C534.206 213.924 534.687 214.261 535.073 214.694C535.46 215.128 535.753 215.641 535.952 216.232C536.151 216.818 536.251 217.46 536.251 218.157V218.342C536.251 219.033 536.151 219.675 535.952 220.267C535.753 220.853 535.46 221.365 535.073 221.805C534.687 222.238 534.209 222.575 533.641 222.815C533.072 223.056 532.416 223.176 531.672 223.176C530.928 223.176 530.269 223.056 529.694 222.815C529.12 222.575 528.64 222.238 528.253 221.805C527.866 221.365 527.573 220.853 527.374 220.267C527.175 219.675 527.075 219.033 527.075 218.342ZM530.037 218.157V218.342C530.037 218.699 530.063 219.033 530.116 219.344C530.169 219.654 530.257 219.927 530.38 220.161C530.503 220.39 530.67 220.568 530.881 220.697C531.092 220.826 531.355 220.891 531.672 220.891C531.982 220.891 532.24 220.826 532.445 220.697C532.656 220.568 532.823 220.39 532.946 220.161C533.069 219.927 533.157 219.654 533.21 219.344C533.263 219.033 533.289 218.699 533.289 218.342V218.157C533.289 217.812 533.263 217.486 533.21 217.182C533.157 216.871 533.069 216.599 532.946 216.364C532.823 216.124 532.656 215.937 532.445 215.802C532.234 215.667 531.971 215.6 531.654 215.6C531.344 215.6 531.083 215.667 530.872 215.802C530.667 215.937 530.503 216.124 530.38 216.364C530.257 216.599 530.169 216.871 530.116 217.182C530.063 217.486 530.037 217.812 530.037 218.157ZM540.461 220.17L542.219 213.49H544.073L543.414 216.839L541.674 223H540.188L540.461 220.17ZM539.767 213.49L540.856 220.117L540.979 223H539.178L536.928 213.49H539.767ZM545.638 219.977L546.736 213.49H549.575L547.343 223H545.541L545.638 219.977ZM544.284 213.49L546.06 220.152L546.332 223H544.829L543.124 216.856L542.491 213.49H544.284ZM555.253 223.176C554.479 223.176 553.788 223.056 553.179 222.815C552.569 222.569 552.054 222.232 551.632 221.805C551.216 221.377 550.896 220.885 550.674 220.328C550.457 219.771 550.349 219.183 550.349 218.562V218.228C550.349 217.53 550.445 216.886 550.639 216.294C550.832 215.696 551.119 215.175 551.5 214.729C551.881 214.284 552.358 213.938 552.933 213.692C553.507 213.44 554.175 213.314 554.937 213.314C555.61 213.314 556.214 213.423 556.747 213.64C557.28 213.856 557.731 214.167 558.101 214.571C558.476 214.976 558.76 215.465 558.953 216.039C559.152 216.613 559.252 217.258 559.252 217.973V219.177H551.482V217.322H556.36V217.094C556.366 216.777 556.311 216.508 556.193 216.285C556.082 216.062 555.918 215.893 555.701 215.775C555.484 215.658 555.221 215.6 554.91 215.6C554.588 215.6 554.321 215.67 554.11 215.811C553.905 215.951 553.744 216.145 553.627 216.391C553.516 216.631 553.437 216.909 553.39 217.226C553.343 217.542 553.319 217.876 553.319 218.228V218.562C553.319 218.913 553.366 219.232 553.46 219.52C553.56 219.807 553.7 220.053 553.882 220.258C554.069 220.457 554.292 220.612 554.55 220.724C554.813 220.835 555.112 220.891 555.446 220.891C555.851 220.891 556.249 220.814 556.642 220.662C557.034 220.51 557.371 220.258 557.652 219.906L558.997 221.506C558.804 221.781 558.528 222.048 558.171 222.306C557.819 222.563 557.397 222.774 556.905 222.938C556.413 223.097 555.862 223.176 555.253 223.176ZM563.444 215.846V223H560.482V213.49H563.251L563.444 215.846ZM566.257 213.42L566.204 216.171C566.087 216.159 565.929 216.145 565.729 216.127C565.53 216.109 565.363 216.101 565.229 216.101C564.883 216.101 564.584 216.142 564.332 216.224C564.086 216.3 563.881 216.417 563.717 216.575C563.559 216.728 563.441 216.921 563.365 217.155C563.295 217.39 563.263 217.662 563.269 217.973L562.732 217.621C562.732 216.982 562.794 216.402 562.917 215.881C563.046 215.354 563.228 214.899 563.462 214.519C563.696 214.132 563.98 213.836 564.314 213.631C564.648 213.42 565.023 213.314 565.439 213.314C565.586 213.314 565.729 213.323 565.87 213.341C566.017 213.358 566.146 213.385 566.257 213.42ZM577.12 217.56H573.824L573.807 215.538H576.479C576.959 215.538 577.343 215.485 577.63 215.38C577.917 215.269 578.125 215.107 578.254 214.896C578.389 214.686 578.456 214.422 578.456 214.105C578.456 213.742 578.389 213.449 578.254 213.227C578.119 213.004 577.905 212.843 577.612 212.743C577.325 212.638 576.953 212.585 576.496 212.585H574.984V223H571.899V210.203H576.496C577.287 210.203 577.993 210.276 578.614 210.423C579.235 210.563 579.763 210.78 580.196 211.073C580.636 211.366 580.97 211.735 581.198 212.181C581.427 212.62 581.541 213.139 581.541 213.736C581.541 214.258 581.43 214.747 581.207 215.204C580.984 215.661 580.612 216.033 580.091 216.32C579.575 216.602 578.869 216.748 577.973 216.76L577.12 217.56ZM576.997 223H573.077L574.132 220.627H576.997C577.419 220.627 577.756 220.562 578.008 220.434C578.266 220.299 578.45 220.123 578.562 219.906C578.679 219.684 578.737 219.438 578.737 219.168C578.737 218.84 578.682 218.556 578.57 218.315C578.465 218.075 578.295 217.891 578.061 217.762C577.826 217.627 577.513 217.56 577.12 217.56H574.527L574.545 215.538H577.647L578.368 216.347C579.224 216.312 579.9 216.432 580.398 216.707C580.902 216.982 581.263 217.346 581.479 217.797C581.696 218.248 581.805 218.72 581.805 219.212C581.805 220.05 581.623 220.75 581.26 221.312C580.902 221.875 580.366 222.297 579.651 222.578C578.937 222.859 578.052 223 576.997 223ZM586.797 210.203V223H583.721V210.203H586.797Z" fill="white"/>
<path d="M1066 0H1348C1356.28 0 1363 6.71573 1363 15V282C1363 290.284 1356.28 297 1348 297H1066V0Z" fill="white"/>
<path d="M1316.24 106.976C1287.33 66.2781 1224.91 48.7553 1162.85 65.0419C1130.04 73.652 1098.22 91.5821 1081.91 127.207C1052.76 190.891 1110.86 212.578 1148.99 219.882C1167.42 223.414 1184.74 229.074 1200.52 236.624C1228.9 250.207 1279.38 262.749 1318.69 209.321C1347.19 170.597 1335.49 134.085 1316.24 106.976Z" fill="#CFE1B9"/>
<path d="M1138.61 101.919C1138.51 101.119 1138.3 100.335 1138 99.5864C1137.96 99.4448 1137.89 99.313 1137.8 99.1992C1137.71 99.0853 1137.59 98.992 1137.46 98.925C1137.29 98.8797 1137.11 98.8775 1136.93 98.919L1134.2 99.3377C1133.97 99.348 1133.75 99.4332 1133.57 99.5801C1133.22 99.9549 1133.57 100.558 1133.56 101.075C1133.55 101.656 1133.03 102.128 1132.47 102.284C1131.9 102.4 1131.31 102.392 1130.74 102.263L1126.92 101.668C1128.04 101.309 1129.05 100.64 1129.81 99.7374C1130.31 99.1411 1130.58 98.028 1129.85 97.7454C1129.64 97.6863 1129.41 97.6681 1129.19 97.6923C1127.46 97.7056 1126.09 96.2589 1124.47 95.6493C1123.43 95.2846 1122.31 95.2575 1121.25 95.572C1120.2 95.8863 1119.27 96.5263 1118.6 97.4L1120.64 97.4981C1120.83 97.4875 1121.02 97.5383 1121.18 97.6429C1121.63 98.0098 1121.07 98.7146 1121.14 99.2889C1121.22 100.035 1122.21 100.195 1122.96 100.27C1123.7 100.346 1124.65 100.953 1124.29 101.612C1120.54 102.905 1116.72 99.0836 1112.78 99.5541C1111.78 99.6732 1110.84 100.065 1109.86 100.312C1103.91 101.818 1097.76 97.7997 1091.69 98.6506C1090.34 98.8811 1089.01 99.2314 1087.72 99.6976C1086.89 99.9693 1086.03 100.263 1085.43 100.893C1084.83 101.523 1084.6 102.601 1085.17 103.26C1083.6 103.389 1082.02 103.239 1080.5 102.816C1080.91 103.045 1081.25 103.379 1081.49 103.785C1081.73 104.19 1081.85 104.652 1081.85 105.121C1079.4 105.521 1077.01 106.249 1074.75 107.285C1075.17 107.986 1075.67 108.641 1076.22 109.241L1073.12 111.235C1074.17 111.499 1074.71 112.929 1074.1 113.822C1075.19 113.339 1075.86 112.087 1077.02 111.834C1077.78 111.667 1078.56 111.979 1079.28 112.272C1080 112.564 1080.8 112.848 1081.54 112.628C1082.29 112.409 1082.84 111.439 1082.37 110.821C1085.56 109.888 1088.87 109.372 1092.19 109.285C1092.45 109.253 1092.71 109.302 1092.94 109.426C1093.37 109.727 1093.26 110.377 1093.23 110.904C1093.21 111.43 1093.62 112.123 1094.09 111.885C1093.54 112.366 1094.01 113.271 1094.54 113.776C1095.07 114.281 1095.71 114.978 1095.39 115.635C1095.3 115.807 1095.16 115.944 1095.08 116.117C1094.84 116.628 1095.22 117.224 1095.67 117.563C1096.12 117.903 1096.68 118.14 1096.99 118.61C1097.3 119.079 1097.16 119.902 1096.6 119.967L1095.01 117.942C1094.46 118.507 1094.09 119.215 1093.93 119.984C1095.62 121.367 1095.87 124.181 1094.46 125.845C1093.73 126.695 1092.71 127.212 1091.81 127.875C1090.91 128.538 1090.08 129.482 1090.08 130.599C1090.09 132.527 1089.93 134.319 1090.65 136.108C1091.98 139.405 1093.52 142.616 1095.26 145.72C1095.71 146.535 1096.3 147.429 1097.22 147.569C1096.06 144.728 1095.01 141.843 1094.07 138.914C1094.68 138.916 1095.38 138.965 1095.74 139.457C1096.04 139.866 1095.97 140.421 1096.06 140.916C1096.18 141.396 1096.38 141.853 1096.64 142.27L1102.21 152.196C1102.67 153.019 1103.2 153.902 1104.08 154.235C1104.65 154.449 1105.3 154.408 1105.82 154.715C1106.23 154.955 1106.5 155.382 1106.92 155.609C1108.09 156.249 1109.72 155.021 1110.82 155.785C1111.13 156.004 1111.33 156.351 1111.62 156.602C1112.63 157.479 1114.29 156.892 1115.46 157.547C1116.21 157.969 1116.6 158.812 1117.01 159.577C1118.01 161.492 1119.64 163.368 1121.8 163.52C1122.48 163.568 1123.17 163.44 1123.83 163.59C1124.49 163.741 1125.15 164.32 1125.04 164.991C1124.86 166.142 1125.43 167.402 1125.27 168.557C1124.99 170.661 1122.01 171.586 1121.76 173.693C1121.7 174.154 1121.79 174.63 1121.68 175.082C1121.54 175.635 1121.13 176.086 1120.98 176.636C1120.7 177.678 1121.45 178.716 1122.27 179.417C1123.09 180.118 1124.06 180.723 1124.51 181.705C1124.99 182.742 1124.75 183.952 1124.91 185.083C1125.24 187.55 1127.37 189.38 1129.57 190.559C1130.24 190.919 1130.95 191.267 1131.39 191.89C1131.95 192.704 1131.89 193.777 1132.08 194.749C1132.54 197.13 1134.55 199.092 1134.6 201.517C1134.64 203.241 1133.69 204.804 1133.11 206.431C1132.58 207.989 1132.38 209.644 1132.55 211.284C1132.71 212.924 1133.22 214.51 1134.05 215.934C1134.48 216.657 1134.99 217.338 1135.29 218.122C1135.83 219.521 1135.66 221.11 1136.15 222.525C1136.81 224.394 1138.62 225.939 1138.45 227.913C1139.27 229.62 1141.08 230.458 1142.91 230.967L1146.18 231.877C1146.8 232.051 1147.46 232.227 1148.1 232.101C1148.73 231.974 1149.34 231.445 1149.32 230.795C1147.72 230.433 1146.07 230.049 1144.75 229.071C1143.42 228.094 1142.52 226.353 1143.02 224.788C1143.25 224.062 1143.75 223.223 1143.28 222.623C1143.01 222.28 1142.52 222.19 1142.21 221.877C1141.74 221.388 1141.9 220.567 1142.24 219.977C1142.58 219.388 1143.07 218.861 1143.21 218.194C1143.28 217.821 1143.23 217.436 1143.08 217.09C1142.92 216.744 1142.67 216.454 1142.34 216.259C1142.95 216.03 1143.5 215.676 1143.96 215.22C1144.38 214.734 1144.58 213.984 1144.25 213.432C1145.24 213.558 1146.41 213.619 1147.07 212.859C1147.59 212.251 1147.55 211.343 1147.34 210.569C1147.14 209.796 1146.79 209.044 1146.78 208.244C1149.07 208.353 1151.37 208.275 1153.65 208.011C1153.32 206.9 1152.57 205.961 1151.56 205.393C1152.59 205.218 1153.54 203.981 1153.86 202.985C1154.19 201.99 1154.11 200.905 1153.9 199.876C1153.83 199.611 1153.82 199.332 1153.87 199.062C1153.99 198.691 1154.35 198.465 1154.69 198.271L1159.82 195.326C1160.12 195.172 1160.4 194.967 1160.64 194.72C1161.17 194.089 1161.09 193.136 1160.82 192.354C1160.54 191.572 1160.1 190.837 1160 190.015C1159.68 187.556 1162.31 185.792 1163.2 183.477C1163.55 182.569 1163.62 181.582 1163.69 180.611C1163.76 179.568 1163.76 178.358 1162.96 177.686C1162.2 177.042 1161 177.185 1160.2 176.586C1159.46 176.037 1159.21 174.971 1158.4 174.527C1157.67 174.124 1156.76 174.381 1155.95 174.191C1154.52 173.858 1153.62 172.21 1152.16 172.057C1151.33 171.971 1150.4 172.374 1149.73 171.894C1149.13 171.471 1149.11 170.621 1148.99 169.9C1148.8 168.779 1148.26 167.746 1147.46 166.94C1146.65 166.133 1145.62 165.593 1144.5 165.391C1143.65 165.254 1142.73 165.306 1142.01 164.839C1141.28 164.367 1140.94 163.481 1140.37 162.827C1139.44 161.771 1137.98 161.396 1136.61 161.075L1131.06 159.768C1130.07 159.536 1128.8 159.413 1128.27 160.278C1128.11 160.607 1128 160.956 1127.94 161.315C1127.74 161.965 1127.34 162.535 1126.8 162.944C1126.26 163.353 1125.6 163.579 1124.92 163.59C1124.45 162.795 1123.7 162.211 1122.81 161.959C1122.25 161.802 1121.65 161.785 1121.11 161.553C1120.82 161.411 1120.56 161.209 1120.34 160.962C1120.13 160.715 1119.97 160.427 1119.87 160.116C1119.78 159.805 1119.74 159.477 1119.78 159.153C1119.81 158.829 1119.91 158.515 1120.07 158.231C1120.39 157.66 1120.51 157 1120.42 156.352C1120.33 155.703 1120.03 155.103 1119.56 154.645C1118.62 153.796 1117.25 153.591 1115.98 153.676C1115.65 152.951 1116.2 152.133 1116.8 151.607C1117.4 151.08 1118.13 150.563 1118.26 149.776C1118.46 148.539 1116.88 147.6 1115.69 147.969C1114.49 148.338 1113.72 149.501 1113.22 150.649C1112.93 151.307 1112.68 152 1112.22 152.555C1111.77 153.11 1111.03 153.508 1110.33 153.33C1109.35 153.078 1108.97 151.905 1108.75 150.91C1108.46 149.576 1108.16 148.223 1108.22 146.858C1108.28 145.493 1108.74 144.091 1109.75 143.167C1111.39 141.661 1113.9 141.809 1116.12 142.049C1115.59 141.46 1115.72 140.467 1116.28 139.912C1116.58 139.65 1116.93 139.463 1117.32 139.369C1117.7 139.275 1118.1 139.275 1118.48 139.371C1119.15 139.51 1119.75 139.869 1120.19 140.391C1120.82 141.158 1121 142.194 1121.47 143.064C1121.95 143.935 1123.02 144.677 1123.89 144.21C1124.65 143.807 1124.77 142.759 1124.58 141.923C1124.39 141.087 1123.99 140.274 1124.06 139.42C1124.19 137.791 1125.88 136.809 1127.37 136.138C1128.86 135.467 1130.56 134.565 1130.8 132.947C1130.81 132.63 1130.87 132.317 1130.98 132.02C1131.14 131.757 1131.37 131.541 1131.64 131.392C1135.99 128.517 1140.41 125.606 1145.38 124.036C1145.64 123.954 1145.67 124.045 1145.93 123.981C1146.3 123.767 1146.06 123.177 1145.7 122.94C1145.35 122.702 1144.88 122.52 1144.79 122.103C1144.72 121.797 1144.9 121.496 1144.95 121.186C1145.07 120.425 1144.16 119.722 1143.45 120.027C1143.05 119.498 1143.84 118.883 1144.48 118.707C1146.4 118.179 1148.36 117.857 1150.35 117.747C1150.58 117.711 1150.82 117.751 1151.02 117.861C1151.35 118.092 1151.31 118.623 1151.07 118.953C1150.84 119.283 1150.47 119.49 1150.18 119.769C1149.85 120.083 1149.62 120.479 1149.51 120.914C1149.4 121.35 1149.41 121.808 1149.54 122.238C1150.58 122.766 1151.7 123.309 1152.85 123.123C1154 122.937 1155.02 121.646 1154.48 120.615C1153.98 119.655 1152.47 119.438 1152.21 118.386C1151.9 117.154 1153.65 116.058 1153.25 114.851C1153.08 114.322 1152.56 114.011 1152.15 113.63C1151.67 113.162 1151.35 112.561 1151.22 111.905C1151.09 111.249 1151.16 110.569 1151.43 109.955C1150.77 110.071 1150.09 110.027 1149.45 109.828C1148.82 109.628 1148.24 109.278 1147.76 108.808C1146.88 107.922 1146.19 106.526 1144.94 106.566C1143.8 106.602 1142.81 107.935 1141.75 107.529C1141.48 107.429 1141.21 107.225 1140.95 107.344C1140.87 107.398 1140.8 107.471 1140.75 107.556C1140.7 107.641 1140.66 107.737 1140.66 107.836C1140.38 109.135 1140.85 110.614 1140.14 111.736C1139.37 112.957 1137.59 113.127 1136.66 114.227C1136.15 114.825 1135.96 115.631 1135.49 116.261C1135.03 116.891 1134.04 117.291 1133.48 116.742C1133.75 116.177 1133.83 115.536 1133.69 114.923C1133.56 114.31 1133.21 113.762 1132.73 113.368C1132.21 113.029 1131.65 112.757 1131.06 112.558C1130.41 112.28 1129.78 111.932 1129.2 111.521C1128.91 111.345 1128.67 111.092 1128.52 110.79C1128.4 110.412 1128.41 110.002 1128.57 109.634C1128.85 108.822 1129.35 108.102 1130.01 107.552C1130.67 107.003 1131.47 106.645 1132.32 106.518C1133.07 106.416 1133.93 106.452 1134.43 105.885C1134.69 105.585 1134.82 105.131 1135.2 105.009C1135.44 104.961 1135.69 104.992 1135.92 105.098L1138.69 106.075C1139 106.215 1139.35 106.272 1139.68 106.239C1139.85 106.216 1140 106.131 1140.11 106C1140.22 105.87 1140.27 105.703 1140.26 105.534C1140.17 105.073 1139.46 104.851 1139.53 104.386C1139.57 104.235 1139.65 104.099 1139.76 103.995C1140.76 102.928 1141.99 102.095 1143.35 101.558C1144.71 101.02 1146.18 100.79 1147.64 100.884C1147.99 101.46 1147.43 102.142 1146.97 102.633C1146.51 103.125 1146.14 104.004 1146.7 104.382C1146.93 104.499 1147.18 104.556 1147.44 104.549C1148.12 104.641 1148.78 104.843 1149.4 105.146C1150.36 105.564 1151.3 106.021 1152.23 106.517C1152.15 105.908 1152.07 105.267 1152.3 104.698C1152.53 104.129 1153.18 103.683 1153.76 103.904C1154.31 104.118 1154.59 104.849 1155.18 104.916C1155.96 105.005 1156.27 103.846 1155.95 103.128C1155.62 102.409 1154.97 101.808 1154.92 101.02C1154.88 100.489 1155.08 99.8299 1154.66 99.5083C1154.51 99.4117 1154.33 99.3515 1154.16 99.3326L1143.56 97.3823C1142.93 97.2665 1142.03 97.3552 1142 97.9946C1141.98 98.3515 1142.3 98.7045 1142.16 99.0327C1142.01 99.3827 1141.51 99.3507 1141.15 99.4747C1140.59 99.6669 1140.31 100.331 1140.37 100.92C1140.47 101.505 1140.69 102.062 1141.03 102.549C1140.34 102.261 1139.3 102.208 1138.61 101.919Z" fill="#3A5A40"/>
<path d="M1130.16 92.9229C1129.49 92.7017 1128.77 92.6914 1128.1 92.8934C1127.42 93.0954 1126.83 93.5 1126.39 94.0521C1126.22 94.2818 1126.07 94.5985 1126.21 94.8472C1126.42 95.204 1126.96 95.063 1127.35 94.9356C1127.93 94.7289 1128.56 94.7137 1129.15 94.8927C1129.51 95.0196 1129.85 95.2436 1130.22 95.3659C1130.4 95.4413 1130.59 95.4662 1130.79 95.438C1130.98 95.4096 1131.16 95.329 1131.32 95.2051C1131.57 94.9453 1131.59 94.5415 1131.59 94.1776C1131.6 94.0562 1131.59 93.932 1131.56 93.8145C1131.52 93.6969 1131.46 93.5892 1131.38 93.4986C1131.23 93.4127 1131.06 93.3633 1130.89 93.3546C1130.51 93.2836 1130.16 93.0808 1129.91 92.7811" fill="#A3B18A"/>
<path d="M1133.98 91.8589C1133.83 91.8508 1133.68 91.8814 1133.54 91.9476C1133.41 92.0137 1133.3 92.1132 1133.21 92.2366C1133.13 92.3603 1133.07 92.5035 1133.06 92.6526C1133.05 92.8017 1133.07 92.952 1133.13 93.0886C1133.59 93.2139 1134.07 93.2451 1134.54 93.1806C1134.78 93.144 1135 93.0387 1135.17 92.8777C1135.35 92.7169 1135.47 92.5075 1135.53 92.2765C1134.97 92.3774 1134.4 92.2681 1133.92 91.9695" fill="#A3B18A"/>
<path d="M1146.79 90.082C1145.54 90.3477 1144.33 90.7604 1143.18 91.3109C1143.72 91.52 1144.18 91.8982 1144.49 92.3896C1144.81 92.8812 1144.95 93.4602 1144.91 94.0413C1144.86 94.2644 1144.87 94.4957 1144.93 94.7162C1145.06 95.0384 1145.45 95.1593 1145.78 95.242C1146.39 95.4269 1147.03 95.508 1147.66 95.4817C1147.98 95.4652 1148.29 95.3694 1148.56 95.2035C1148.83 95.0378 1149.06 94.8068 1149.22 94.5315C1149.31 94.2704 1149.42 94.0152 1149.54 93.7674C1150.35 92.5317 1152.76 94.0258 1153.63 92.8313C1153.94 92.4107 1153.91 91.7773 1154.31 91.444C1154.51 91.2987 1154.75 91.2073 1155.01 91.1777C1156.76 90.8296 1158.53 90.5777 1160.3 90.4228C1161.15 90.3493 1162.24 90.0467 1162.25 89.2004C1159.08 88.5767 1155.79 89.0195 1152.89 90.4602C1151.85 90.9833 1150.47 92.0834 1149.46 91.3901C1149.08 91.1306 1149.1 90.4315 1148.59 90.1394C1148.06 89.8412 1147.35 89.9624 1146.79 90.082Z" fill="#A3B18A"/>
<path d="M1157.17 92.0241L1158.66 92.3107C1158.39 92.2985 1158.11 92.3449 1157.86 92.4471C1157.6 92.549 1157.37 92.7044 1157.18 92.9024C1156.99 93.1006 1156.85 93.337 1156.76 93.5957C1156.67 93.8547 1156.63 94.1302 1156.65 94.4041C1158.05 94.8702 1159.57 94.4166 1161.04 94.4784C1162.51 94.5405 1164.22 95.591 1163.97 97.0412C1163.89 97.4797 1163.64 97.9179 1163.77 98.3431C1163.86 98.6411 1164.13 98.8523 1164.27 99.1267C1164.58 99.6986 1164.34 100.422 1163.95 100.942C1163.56 101.461 1163.03 101.876 1162.69 102.428C1161.84 103.802 1162.32 105.579 1162.83 107.113C1162.98 107.693 1163.25 108.235 1163.62 108.699C1164.37 109.499 1165.6 109.569 1166.7 109.585C1167.49 109.596 1168.41 109.557 1168.91 108.938C1169.57 108.13 1169.11 106.869 1169.55 105.921C1169.94 105.06 1170.94 104.691 1171.85 104.429C1173.52 103.949 1175.22 103.541 1176.79 102.815C1178.75 101.915 1180.58 100.512 1182.73 100.396C1183.33 100.364 1183.95 100.435 1184.53 100.269C1185.11 100.104 1185.67 99.6013 1185.62 98.9985C1185.58 98.4833 1185.15 98.105 1184.81 97.7167C1184.47 97.3284 1184.2 96.7312 1184.51 96.3204L1190.15 95.2672C1189.75 94.1777 1189.44 92.7429 1190.36 92.0338C1190.69 91.7781 1191.13 91.6759 1191.41 91.3665C1191.89 90.8393 1191.65 89.9312 1191.1 89.483C1190.54 89.0344 1189.79 88.9306 1189.08 88.8715C1186.61 88.6659 1184.12 88.8018 1181.65 88.9376C1176.81 89.2031 1171.97 89.4686 1167.13 89.7341C1166.15 89.7875 1165.03 89.7058 1164.13 90.0383C1163.38 90.32 1162.84 90.8369 1161.97 91.0183C1160.38 91.3537 1158.62 91.1268 1157.17 92.0241Z" fill="#A3B18A"/>
<path d="M1183.86 103.807C1183.71 103.783 1183.56 103.818 1183.43 103.906C1183.35 103.998 1183.3 104.116 1183.29 104.24C1183.19 104.789 1183.31 105.354 1183.61 105.822C1183.76 106.051 1183.98 106.235 1184.23 106.355C1184.48 106.474 1184.75 106.525 1185.03 106.501C1185.7 106.416 1186.19 105.843 1186.81 105.564C1187.76 105.133 1191.8 104.463 1189 102.953C1188.04 102.433 1187.42 102.892 1186.66 103.235C1185.8 103.676 1184.83 103.874 1183.86 103.807Z" fill="#A3B18A"/>
<path d="M1208.32 91.172C1208 91.3052 1207.73 91.5427 1207.55 91.8475C1207.47 92.0023 1207.45 92.1824 1207.5 92.3508C1207.54 92.5192 1207.65 92.6626 1207.8 92.7518C1207.93 92.796 1208.06 92.8167 1208.18 92.8123L1209.51 92.8519C1210.07 92.8687 1210.78 92.9888 1210.93 93.532C1211.04 93.9352 1210.79 94.4534 1211.09 94.7414C1211.22 94.8425 1211.38 94.9036 1211.54 94.9174C1211.98 95.0296 1212.44 95.0446 1212.88 94.9608C1213.85 94.7018 1213.34 94.1126 1213.64 93.5881C1214.11 92.7855 1214.03 93.2714 1214.85 92.8112C1215.45 92.4717 1216.23 91.8554 1215.73 90.9895C1214.85 89.484 1209.62 90.525 1208.32 91.172Z" fill="#A3B18A"/>
<path d="M1234.49 90.4149L1233.72 90.5177C1231.99 90.7495 1230.24 90.9836 1228.57 91.505C1229.29 91.7914 1230.05 91.9779 1230.83 92.0593C1231.25 92.0802 1231.68 92.1404 1232.09 92.2391C1232.83 92.4593 1233.58 93.0271 1234.29 92.7361C1234.73 92.5558 1234.88 92.0948 1235.24 91.8505C1235.5 91.6818 1236.46 91.409 1236.56 91.2387C1237.43 89.8626 1235.16 90.326 1234.49 90.4149Z" fill="#A3B18A"/>
<path d="M1237.88 93.916C1236.85 94.4914 1235.89 95.1905 1235.03 95.9977C1234.67 96.338 1234.3 96.7611 1234.34 97.2568C1234.38 97.9157 1235.08 98.2978 1235.69 98.5551L1238.15 99.5977C1238.45 99.1766 1238.18 98.5955 1237.87 98.1817C1237.56 97.7679 1237.19 97.289 1237.33 96.7912C1237.48 96.2231 1238.18 96.0295 1238.76 95.9316C1239.7 95.7721 1242.25 95.7849 1241.95 94.2593C1241.59 92.4617 1238.83 93.3848 1237.88 93.916Z" fill="#A3B18A"/>
<path d="M1237.38 195.638C1237.15 196.317 1237.12 197.116 1237.53 197.709C1237.98 198.374 1238.89 198.622 1239.68 198.453C1240.47 198.244 1241.17 197.795 1241.68 197.167C1242.15 196.642 1242.54 196.047 1242.83 195.404C1243.24 194.401 1243.52 193.354 1243.68 192.285L1244.45 188.27C1244.62 187.373 1244.61 184.623 1242.96 185.519C1242.51 185.764 1241.47 187.697 1241 188.245C1240.15 189.233 1240.03 190.191 1239.59 191.388C1239.03 192.887 1237.9 194.137 1237.38 195.638Z" fill="#A3B18A"/>
<path d="M1324.43 216.181C1323.89 215.97 1323.37 215.721 1322.86 215.435C1322.36 216.824 1322.09 218.287 1322.07 219.764L1325.76 217.675C1326.32 217.361 1326.94 216.924 1326.93 216.286C1326.94 216.207 1326.92 216.129 1326.88 216.058C1326.85 215.988 1326.79 215.928 1326.73 215.886C1326.65 215.853 1326.56 215.843 1326.47 215.856C1325.92 215.902 1325.42 216.171 1324.91 216.358C1324.39 216.546 1323.79 216.645 1323.31 216.367" fill="#A3B18A"/>
<path d="M1343.9 217.421C1343.49 217.532 1343.1 217.674 1342.72 217.846C1341.87 218.278 1341.29 219.096 1340.53 219.664C1339.8 220.207 1338.92 220.506 1338.06 220.796C1337.81 221.02 1337.92 221.472 1338.2 221.668C1338.5 221.837 1338.83 221.913 1339.17 221.888C1340.07 221.907 1341.01 221.916 1341.8 221.484C1342.24 221.197 1342.65 220.868 1343.03 220.503C1343.95 219.738 1345.05 219.232 1346.14 218.744C1346.53 218.595 1346.9 218.375 1347.22 218.096C1347.91 217.421 1347.95 216.38 1346.97 216.15C1346.17 215.964 1344.66 217.176 1343.9 217.421Z" fill="#A3B18A"/>
<path d="M1352.5 211.8C1352.54 211.335 1352.48 210.867 1352.32 210.43C1352.16 209.993 1351.89 209.598 1351.56 209.276C1351.55 210.206 1351.52 211.196 1351 211.964C1350.62 212.512 1350.04 212.882 1349.63 213.404C1349.23 213.925 1349.04 214.752 1349.52 215.21C1349.83 215.443 1350.2 215.571 1350.58 215.576C1351.54 215.688 1352.64 215.751 1353.31 215.063C1353.67 214.687 1353.85 214.13 1354.29 213.854C1354.46 213.785 1354.61 213.679 1354.73 213.544C1354.91 213.252 1354.62 212.867 1354.29 212.762C1353.96 212.657 1353.6 212.706 1353.27 212.606C1352.94 212.507 1352.64 212.135 1352.81 211.835" fill="#A3B18A"/>
<path d="M1337.21 177.722C1336.71 177.844 1336.19 177.874 1335.68 177.812C1334.84 177.656 1334.18 177.017 1333.49 176.493C1331.87 175.253 1329.89 174.562 1327.84 174.518C1325.98 174.483 1324.1 174.987 1322.28 174.635C1322.4 175.299 1322.97 175.797 1323.57 176.093C1324.18 176.39 1324.85 176.538 1325.46 176.829C1326.43 177.298 1327.2 178.103 1327.64 179.096C1327.83 179.555 1327.95 180.053 1328.25 180.453C1328.86 181.271 1330.01 181.45 1331.03 181.383C1332.35 181.296 1333.73 180.915 1334.96 181.409C1335.91 181.786 1336.58 182.612 1337.37 183.254C1338.16 183.895 1339.26 184.372 1340.17 183.909C1339.23 183.604 1338.41 183.008 1337.84 182.207C1337.26 181.405 1336.96 180.441 1336.97 179.453C1337.85 179.535 1340.41 179.503 1340.27 177.996C1340.15 176.72 1337.97 177.584 1337.21 177.722Z" fill="#A3B18A"/>
<path d="M1325.62 188.112C1325.77 187.249 1326.63 186.486 1326.37 185.65C1326.18 185.072 1325.51 184.787 1324.9 184.773C1324.3 184.758 1323.7 184.939 1323.09 184.956C1322.7 184.935 1322.3 184.941 1321.91 184.973C1320.71 185.171 1319.96 186.434 1318.83 186.883C1318.14 187.156 1317.36 187.103 1316.65 187.292C1315.02 187.721 1313.99 189.26 1312.85 190.502C1311.01 192.499 1308.61 193.898 1305.97 194.516C1305.04 194.731 1304.05 194.868 1303.31 195.47C1302.34 196.267 1302.1 197.633 1301.88 198.874C1301.28 202.3 1300.36 205.664 1299.14 208.921L1303.01 209.415C1303.75 209.509 1304.51 209.601 1305.22 209.383C1305.73 209.189 1306.22 208.929 1306.67 208.61C1308.39 207.54 1310.32 206.843 1312.33 206.566C1313.34 206.427 1314.4 206.401 1315.35 206.778C1316.3 207.155 1317.12 208.009 1317.2 209.029C1317.61 208.901 1318.05 208.887 1318.47 208.988C1318.88 209.09 1319.27 209.304 1319.57 209.606C1320.18 210.224 1320.58 211.016 1320.71 211.871C1320.81 212.4 1320.91 213.035 1321.4 213.257C1321.8 213.438 1322.26 213.243 1322.7 213.208C1324.19 213.089 1325.42 214.823 1326.88 214.525C1328.45 214.204 1328.84 211.856 1330.36 211.385C1331.24 211.115 1332.47 211.443 1332.9 210.626C1333.26 209.906 1332.52 209.074 1332.6 208.267C1332.7 207.274 1333.87 206.852 1334.77 206.429C1337.88 204.968 1339.36 200.776 1337.85 197.685C1336.96 195.853 1335.2 194.412 1334.87 192.4C1334.62 190.852 1335.23 189.047 1334.25 187.828C1333.75 187.208 1332.9 186.866 1332.6 186.126C1332.41 185.661 1332.49 185.133 1332.38 184.641C1332.28 184.149 1331.85 183.635 1331.37 183.762C1329.96 184.132 1329.51 188.487 1328.75 189.545C1327.61 191.154 1325.25 190.094 1325.62 188.112Z" fill="#588157"/>
<path d="M1299.57 179.367C1299.09 179.232 1298.56 179.099 1298.1 179.292C1297.64 179.485 1297.37 180.163 1297.74 180.5C1300.64 180.387 1303.55 180.275 1306.43 180.668C1309.74 181.122 1313.01 182.245 1316.33 181.915C1314.44 181.354 1312.51 180.906 1310.55 180.573L1307.3 179.951C1306.43 179.768 1305.55 179.631 1304.66 179.542C1302.8 179.389 1301.4 179.88 1299.57 179.367Z" fill="#A3B18A"/>
<path d="M1302.47 169.273C1302.23 169.253 1301.93 169.236 1301.81 169.443C1301.69 169.64 1301.83 169.901 1301.76 170.123C1301.67 170.426 1301.28 170.503 1300.97 170.462C1300.65 170.421 1300.32 170.322 1300.04 170.473C1299.9 170.569 1299.79 170.708 1299.74 170.868C1299.68 171.029 1299.68 171.204 1299.74 171.365C1299.85 171.686 1300.03 171.978 1300.27 172.22C1300.68 172.736 1301.15 173.203 1301.66 173.614C1302.66 174.35 1304.01 174.704 1304.63 175.771C1304.72 175.978 1304.86 176.161 1305.03 176.306C1305.33 176.497 1305.72 176.352 1306.05 176.203L1307.18 175.684C1307.39 175.61 1307.57 175.486 1307.71 175.322C1307.97 174.97 1307.81 174.469 1307.6 174.089C1307.38 173.71 1307.1 173.317 1307.15 172.882C1307.23 172.106 1308.23 171.809 1308.64 171.145C1309.05 170.476 1308.78 169.614 1308.83 168.828C1308.89 167.91 1309.46 166.715 1308.53 166.029C1307.75 165.446 1306.99 165.985 1306.43 166.629C1305.23 167.986 1304.67 169.457 1302.47 169.273Z" fill="#A3B18A"/>
<path d="M1309.37 155.551C1309.76 156.294 1310.56 156.738 1310.99 157.462C1311.45 158.246 1311.39 159.259 1311.89 160.019C1312.4 160.8 1313.43 161.214 1313.71 162.101C1314.03 163.07 1313.32 164.247 1313.88 165.093C1313.99 165.231 1314.12 165.346 1314.27 165.431C1314.43 165.515 1314.59 165.566 1314.77 165.582C1314.94 165.598 1315.11 165.578 1315.28 165.523C1315.44 165.468 1315.6 165.379 1315.72 165.262C1315.96 165.003 1316.09 164.66 1316.08 164.308C1316.07 163.956 1315.92 163.622 1315.67 163.377C1315.33 163.071 1314.85 162.94 1314.57 162.583C1314.43 162.377 1314.33 162.141 1314.29 161.893C1314.14 161.175 1314.16 160.432 1314.36 159.726C1314.44 159.547 1314.46 159.35 1314.42 159.16C1314.29 158.794 1313.8 158.768 1313.45 158.598C1312.66 158.213 1312.68 157.099 1312.82 156.231C1312.73 156.809 1310.67 155.826 1310.45 155.499C1310.03 154.849 1310.26 153.595 1310.17 152.877C1309.25 153.323 1308.89 154.643 1309.37 155.551Z" fill="#A3B18A"/>
<path d="M1288.65 166.984C1288.27 166.559 1287.7 166.114 1287.19 166.371C1286.8 166.566 1286.7 167.104 1286.85 167.511C1287.03 167.907 1287.32 168.247 1287.68 168.499C1288.74 169.374 1289.88 170.164 1290.8 171.181C1292.46 173.001 1293.34 175.457 1295.14 177.134C1295.5 177.523 1295.98 177.782 1296.5 177.873C1297.03 177.921 1297.61 177.586 1297.68 177.062C1297.73 176.631 1297.42 176.244 1297.13 175.925C1296.43 175.164 1295.67 174.463 1295.01 173.668C1294.7 173.362 1294.51 172.962 1294.46 172.533C1294.46 172.105 1294.85 171.656 1295.26 171.762C1294.76 171.633 1294.39 170.793 1293.65 170.635C1293.03 170.502 1292.88 170.886 1292.14 170.57C1290.74 169.967 1289.64 168.086 1288.65 166.984Z" fill="#A3B18A"/>
<path d="M1321.64 125.592C1321.24 125.472 1320.85 125.33 1320.46 125.167C1319.42 124.855 1318.04 125.621 1318.18 126.701C1318.27 127.419 1318.94 127.903 1319.3 128.525C1319.85 129.448 1319.7 130.619 1319.42 131.653C1319.35 131.973 1319.21 132.276 1319.02 132.543C1318.76 132.825 1318.44 133.054 1318.09 133.215C1316.68 134.005 1315.44 135.061 1314.43 136.323C1314.32 136.44 1314.25 136.584 1314.21 136.739C1314.16 137.104 1314.53 137.37 1314.74 137.674C1315.2 138.35 1314.86 139.259 1314.91 140.075C1314.9 140.191 1314.92 140.306 1314.97 140.41C1315.02 140.514 1315.1 140.604 1315.19 140.671C1315.47 140.812 1315.8 140.572 1315.95 140.3C1316.45 139.396 1316.07 137.944 1317.01 137.508C1317.19 137.426 1317.4 137.391 1317.52 137.235C1317.71 136.989 1317.53 136.623 1317.62 136.328C1317.76 135.885 1318.37 135.865 1318.83 135.885C1319.63 135.918 1320.43 135.812 1321.2 135.57C1321.5 135.499 1321.77 135.341 1321.98 135.117C1322.26 134.767 1322.24 134.27 1322.18 133.826C1321.9 131.612 1321.2 129.472 1320.12 127.522C1320.94 127.627 1321.83 127.718 1322.54 127.289C1322.94 127.049 1323.41 126.332 1323.22 125.843C1322.91 125.07 1322.34 125.721 1321.64 125.592Z" fill="#A3B18A"/>
<path d="M1216.26 137.769C1216.35 138.297 1216.45 138.852 1216.28 139.361C1216.1 139.869 1215.56 140.294 1215.05 140.138C1214.65 140.017 1214.42 139.616 1214.14 139.31C1212.56 137.61 1209.01 138.595 1208.04 136.491C1207.64 135.633 1207.91 134.604 1207.64 133.698C1207.47 133.174 1207.13 132.722 1206.67 132.412C1206.22 132.103 1205.67 131.953 1205.12 131.987C1204.62 132.06 1204.13 132.206 1203.67 132.42C1200.6 133.652 1197.37 134.46 1194.08 134.821C1193.45 134.859 1192.83 134.971 1192.24 135.156C1190.88 135.647 1189.96 136.901 1189.3 138.18C1188.65 139.46 1188.16 140.845 1187.28 141.982C1186.35 143.176 1185.06 144.013 1183.84 144.918C1183.38 145.219 1182.99 145.626 1182.71 146.106C1182.45 146.645 1182.46 147.272 1182.48 147.872L1182.73 155.151C1182.76 156.087 1182.8 157.057 1183.22 157.895C1183.75 158.941 1184.78 159.626 1185.5 160.551C1186.23 161.501 1186.61 162.674 1186.57 163.872C1186.56 164.354 1186.51 164.924 1186.89 165.227C1187.11 165.375 1187.38 165.452 1187.65 165.448L1197.49 166.254C1199.23 166.395 1201.14 166.629 1202.27 167.948C1202.81 168.571 1203.24 169.467 1204.05 169.533C1204.4 169.562 1204.74 169.418 1205.1 169.39C1205.98 169.32 1206.76 169.992 1207.25 170.732C1207.99 171.859 1208.33 173.205 1208.2 174.55C1208.12 175.394 1207.86 176.214 1207.8 177.06C1207.59 180.278 1210.32 183.074 1210.37 186.299C1210.4 188.195 1209.5 189.968 1208.62 191.649C1210.04 193.796 1208.88 196.654 1209.44 199.164C1209.98 201.545 1211.96 203.408 1212.46 205.798C1212.68 206.892 1212.7 208.238 1213.66 208.801C1214.08 209.008 1214.55 209.102 1215.02 209.074C1217.86 209.108 1220.66 208.47 1223.2 207.212C1224.39 206.62 1225.63 205.737 1225.83 204.421C1226 203.361 1225.46 202.175 1226.01 201.251C1226.66 200.162 1228.31 200.248 1229.26 199.411C1230.79 198.053 1229.59 195.463 1230.22 193.507C1230.78 191.748 1232.71 190.815 1233.66 189.236C1234.04 188.558 1234.31 187.825 1234.47 187.065C1234.9 185.247 1235.18 183.393 1235.28 181.526C1235.31 180.391 1235.39 179.259 1235.53 178.133C1236.56 171.723 1242.9 167.431 1244.95 161.273C1245.15 160.685 1245.24 159.902 1244.72 159.569C1244.41 159.421 1244.06 159.384 1243.72 159.465L1239.19 160.037C1238.62 160.108 1238.02 160.175 1237.51 159.941C1236.99 159.707 1236.62 159.051 1236.89 158.554C1237.66 157.158 1236.08 155.393 1235.37 153.962C1233.48 150.109 1231.22 146.444 1228.63 143.018C1228.46 142.842 1228.36 142.617 1228.33 142.376L1229.62 142.419C1229.19 140.859 1228.47 139.151 1226.95 138.58C1226.1 138.259 1225.16 138.37 1224.24 138.42C1221.64 138.562 1218.84 138.168 1216.26 137.769Z" fill="#3A5A40"/>
<path d="M1224.25 102.605C1224.93 103.33 1225.69 104.099 1226.68 104.226C1228.43 104.449 1229.68 102.644 1230.48 101.076C1230.51 101.476 1230.69 101.848 1230.99 102.114C1231.29 102.38 1231.69 102.518 1232.09 102.5C1232.52 102.427 1232.93 102.267 1233.29 102.027C1236.75 100.137 1240.62 99.1357 1244.56 99.1129C1244.52 98.8144 1244.6 98.5123 1244.77 98.265C1244.94 98.0179 1245.2 97.843 1245.49 97.7744C1246.29 97.6155 1247.01 98.3084 1247.4 99.028C1247.79 99.7477 1248.03 100.582 1248.64 101.121C1249.26 101.659 1250.44 101.636 1250.69 100.856C1250.92 100.107 1250.14 99.4681 1249.49 99.0267C1248.84 98.5849 1248.16 97.7677 1248.6 97.116C1251.91 96.3831 1255.24 95.6471 1258.63 95.5015C1259.2 95.5216 1259.78 95.4226 1260.31 95.2105C1260.83 94.957 1261.24 94.3813 1261.1 93.8224C1260.36 93.9963 1259.59 93.9461 1258.88 93.6779C1258.17 93.4097 1257.55 92.936 1257.11 92.3172C1261.81 91.9292 1266.81 91.5983 1270.98 93.8111C1271.48 94.8846 1268.93 95.7778 1269.61 96.7459C1269.83 97.0548 1270.26 97.0911 1270.64 97.0981C1273.54 97.1518 1276.45 97.2044 1279.31 96.7673C1280.35 96.6076 1281.41 96.382 1282.46 96.5116C1284.21 96.7275 1285.7 97.8948 1287.43 98.2756C1288.13 98.4304 1288.91 98.4355 1289.5 98.0282C1290.09 97.6207 1290.35 96.6927 1289.86 96.1629C1291.48 94.5744 1294.17 94.9681 1296.31 95.7287C1298.44 96.4891 1300.47 97.7156 1302.73 97.8851C1304.35 98.0066 1306 97.5702 1307.6 97.8476C1308.61 98.022 1309.55 98.4702 1310.53 98.7458C1312.39 99.2667 1314.36 99.1566 1316.29 99.1818C1321.23 99.2482 1326.1 100.218 1330.69 102.043C1331.28 102.237 1331.83 102.56 1332.29 102.989C1332.71 103.446 1332.93 104.156 1332.64 104.711L1327.91 104.019C1328.36 104.898 1329.51 105.048 1330.45 105.351C1331.38 105.654 1332.36 106.69 1331.79 107.498C1330.78 107.175 1329.86 108.191 1329.34 109.125C1328.83 110.06 1328.2 111.18 1327.14 111.237C1326.19 111.288 1325.03 110.476 1324.41 111.201C1325.27 112.284 1326.01 113.46 1326.61 114.706C1327.22 115.985 1327.66 117.598 1326.83 118.749C1326.69 118.954 1326.5 119.108 1326.27 119.183C1325.59 119.355 1325.15 118.525 1324.66 118.023C1324.05 117.389 1323.12 117.21 1322.3 116.913C1321.47 116.616 1320.59 116.032 1320.53 115.153C1320.49 114.606 1320.78 114.098 1320.99 113.592C1321.35 112.741 1321.5 111.818 1321.44 110.896C1321.4 110.154 1321.19 109.383 1320.66 108.865C1320.13 108.346 1319.21 108.182 1318.63 108.657C1318.37 108.878 1318.15 109.232 1317.81 109.246C1317.2 109.269 1316.73 108.202 1316.23 108.566C1316.29 108.954 1316.21 109.35 1316.01 109.685C1314.54 110.964 1312.28 110.423 1310.39 110.875C1309.49 111.132 1308.62 111.509 1307.82 111.995C1307.52 112.123 1307.27 112.337 1307.09 112.61C1306.85 113.07 1307.11 113.659 1307.53 113.964C1307.97 114.235 1308.47 114.405 1308.98 114.461C1311.29 114.898 1313.64 115.576 1315.46 117.06C1317.28 118.543 1318.48 120.996 1317.9 123.276L1313.35 118.922C1313.52 120.75 1313.62 122.583 1313.64 124.421C1313.67 124.78 1313.62 125.141 1313.5 125.479C1313.17 126.196 1312.29 126.437 1311.52 126.596C1311.31 126.636 1311.1 126.722 1310.93 126.847C1310.75 126.972 1310.6 127.134 1310.48 127.321C1310.37 127.508 1310.3 127.717 1310.27 127.934C1310.25 128.151 1310.27 128.371 1310.33 128.579C1310.61 129.473 1311.29 130.169 1311.92 130.863C1312.54 131.557 1313.16 132.346 1313.24 133.276C1313.32 134.207 1312.62 135.256 1311.69 135.192C1310.98 135.143 1310.46 134.51 1310.16 133.869C1309.85 133.228 1309.68 132.514 1309.22 131.969C1307.85 130.321 1304.78 131.027 1303.55 129.27C1303.24 129.625 1303.02 130.054 1302.92 130.516C1302.82 130.979 1302.84 131.459 1302.97 131.912C1303.55 131.555 1304.33 131.887 1304.76 132.407C1305.18 132.926 1305.39 133.593 1305.72 134.176C1306.18 134.964 1306.9 135.662 1306.97 136.569C1306.95 136.912 1306.95 137.256 1306.98 137.598C1307.1 138.148 1307.56 138.543 1307.88 139.002C1308.63 140.071 1308.59 141.54 1308.11 142.753C1307.63 143.966 1306.76 144.98 1305.9 145.962C1304.4 147.679 1302.87 149.385 1301.09 150.811C1300.58 151.218 1300.04 151.618 1299.72 152.186C1299.41 152.755 1299.39 153.553 1299.88 153.986C1299.53 154.003 1298.91 154.174 1298.56 154.192C1298.44 152.796 1298.41 151.394 1298.48 149.995C1297.11 149.335 1295.63 151.101 1295.81 152.613C1295.98 154.126 1297.08 155.34 1297.86 156.648C1298.42 157.605 1298.85 158.721 1298.66 159.818C1298.47 160.916 1297.49 161.928 1296.38 161.831C1294.62 161.677 1293.88 159.144 1292.13 158.854C1291.98 158.818 1291.82 158.834 1291.67 158.9C1291.41 159.042 1291.37 159.389 1291.35 159.685C1291.28 161.135 1291.22 162.643 1291.79 163.981C1292.61 165.937 1294.75 167.58 1294.3 169.657C1291.89 168.533 1290.63 165.821 1290.06 163.216C1289.49 160.611 1289.39 157.876 1288.37 155.414C1287.59 156.41 1285.96 155.586 1285.25 154.542C1284.58 153.551 1284.17 152.405 1283.51 151.402C1282.86 150.398 1281.86 149.499 1280.67 149.443C1279.41 149.386 1278.32 150.246 1277.37 151.06C1276.58 151.728 1275.77 152.423 1275.32 153.348C1274.65 154.693 1274.82 156.279 1274.79 157.781C1274.75 159.405 1274.41 161.118 1273.3 162.307C1272.2 163.496 1270.16 163.91 1268.94 162.839C1268.3 162.279 1267.99 161.444 1267.72 160.641C1266.39 156.774 1265.29 152.835 1264.41 148.843C1264.21 149.754 1263.41 150.928 1262.64 150.392C1262.47 150.247 1262.33 150.068 1262.24 149.866C1260.81 147.45 1258.17 146 1255.5 145.131C1252.84 144.262 1250.03 143.856 1247.4 142.901C1245.92 142.366 1244.51 141.662 1243.19 140.805C1242.85 141.298 1242.66 141.874 1242.62 142.47C1242.59 143.066 1242.71 143.661 1242.99 144.191C1243.57 145.227 1244.9 145.826 1246.03 145.464C1246.61 145.277 1247.11 144.87 1247.69 144.67C1248.27 144.469 1249.05 144.567 1249.3 145.127C1249.55 145.663 1249.18 146.312 1249.36 146.872C1249.64 147.724 1250.92 147.79 1251.37 148.565C1251.71 149.143 1251.43 149.909 1250.96 150.375C1250.48 150.84 1249.84 151.096 1249.26 151.42C1247.37 152.472 1246.02 154.268 1244.37 155.665C1242.72 157.062 1240.39 158.082 1238.42 157.186C1238.89 154.808 1236.06 153.062 1235.54 150.694C1235.36 149.915 1235.45 149.087 1235.21 148.328C1234.85 147.229 1233.88 146.473 1233.08 145.639C1232.11 144.618 1231.35 143.412 1230.86 142.094C1230.36 140.775 1230.13 139.371 1230.19 137.963C1230.23 136.984 1230.41 135.99 1230.19 135.036C1229.96 134.083 1229.17 133.16 1228.2 133.203C1225.96 133.301 1223.15 133.468 1221.98 131.563C1221.56 130.883 1221.38 129.887 1221.98 129.366C1222.41 128.999 1223.04 129.033 1223.6 129.088L1228.63 129.584C1229.81 129.699 1231.08 129.795 1232.09 129.179C1233.1 128.564 1233.54 126.93 1232.6 126.205C1231.92 125.676 1230.7 125.705 1230.5 124.863C1230.33 124.163 1231.11 123.367 1230.69 122.782C1230.39 122.362 1229.71 122.478 1229.3 122.793C1228.89 123.108 1228.6 123.568 1228.14 123.806C1227.34 124.225 1226.38 123.827 1225.51 123.556C1224.65 123.286 1223.49 123.263 1223.07 124.066C1222.6 124.964 1223.49 126.14 1223.02 127.04C1222.41 128.229 1220.33 127.552 1219.46 128.575C1218.47 129.75 1220.14 131.5 1219.8 133C1219.38 133.212 1218.9 133.309 1218.43 133.282C1217.95 133.255 1217.49 133.106 1217.09 132.848C1216.7 132.58 1216.38 132.21 1216.18 131.778C1215.98 131.346 1215.9 130.867 1215.95 130.394C1216.03 129.719 1216.39 129.03 1216.15 128.392C1215.96 127.877 1215.44 127.57 1214.96 127.304L1210.07 124.6C1209.62 125.443 1210.19 126.488 1210.91 127.121C1211.63 127.754 1212.53 128.23 1213 129.063C1213.3 129.641 1213.36 130.31 1213.18 130.935C1213.01 131.559 1212.6 132.093 1212.04 132.425C1211.97 132.474 1211.89 132.506 1211.81 132.521C1211.72 132.535 1211.64 132.532 1211.55 132.51C1211.48 132.464 1211.41 132.403 1211.35 132.33C1211.3 132.258 1211.26 132.175 1211.24 132.087C1210.38 129.878 1209.08 127.699 1207.01 126.545C1204.94 125.391 1201.96 125.628 1200.6 127.572C1200.28 128.034 1200.06 128.561 1199.78 129.049C1198.29 131.643 1195.09 132.871 1192.1 132.791C1191.81 132.807 1191.52 132.738 1191.26 132.594C1190.78 132.26 1190.8 131.551 1190.87 130.968L1191.19 128.494C1191.25 127.997 1191.34 127.448 1191.73 127.137C1192.29 126.7 1193.09 126.976 1193.79 126.966C1194.33 126.941 1194.84 126.752 1195.27 126.425C1195.69 126.098 1196 125.649 1196.16 125.137C1196.3 124.621 1196.3 124.076 1196.16 123.561C1196.01 123.045 1195.73 122.579 1195.34 122.212C1195.02 121.908 1194.59 121.526 1194.76 121.116C1194.82 121.003 1194.92 120.906 1195.03 120.832C1195.14 120.758 1195.26 120.709 1195.39 120.689C1196.66 120.321 1198 120.224 1199.24 119.79C1200.49 119.355 1201.7 118.466 1201.99 117.179C1202.08 116.785 1202.13 116.307 1202.48 116.112C1202.66 116.037 1202.85 115.998 1203.04 115.997C1203.72 115.901 1204.33 115.555 1204.76 115.028C1205.2 114.501 1205.42 113.83 1205.38 113.148C1205.98 112.731 1206.82 113.038 1207.39 113.482C1207.97 113.926 1208.48 114.513 1209.19 114.704C1210.5 115.061 1211.76 113.9 1213.12 113.895C1213.69 113.893 1214.28 114.095 1214.82 113.901C1215.36 113.705 1215.69 113.162 1216.11 112.762C1216.53 112.361 1217.26 112.116 1217.64 112.548L1217.32 110.113C1217.98 110.28 1218.67 110.303 1219.34 110.182C1220.01 110.06 1220.65 109.796 1221.21 109.408L1216.96 107.972C1216.82 107.935 1216.68 107.862 1216.57 107.76C1216.26 107.427 1216.56 106.908 1216.82 106.53C1217.42 105.626 1217.52 104.135 1216.53 103.685C1215.85 103.377 1215.08 103.746 1214.43 104.107L1211.33 105.837C1211.23 106.427 1211.96 106.761 1212.4 107.158C1212.67 107.398 1212.86 107.714 1212.95 108.065C1213.04 108.416 1213.02 108.786 1212.89 109.124C1212.76 109.463 1212.54 109.756 1212.24 109.964C1211.95 110.172 1211.59 110.286 1211.23 110.29C1211.44 110.556 1211.58 110.864 1211.65 111.192C1211.72 111.519 1211.71 111.859 1211.63 112.184L1209.55 112.334C1209.31 112.381 1209.07 112.334 1208.87 112.202C1208.65 112.004 1208.68 111.656 1208.62 111.362C1208.5 110.653 1207.81 110.155 1207.1 110.028C1206.39 109.9 1205.66 110.064 1204.96 110.225C1204.66 110.332 1204.34 110.325 1204.04 110.204C1203.88 110.095 1203.75 109.934 1203.68 109.745C1203.37 108.999 1203.66 108.121 1204.15 107.483C1204.65 106.845 1205.32 106.378 1205.93 105.847C1207.39 104.571 1208.45 102.915 1209.01 101.064C1210.16 100.583 1211.35 99.9286 1212.5 99.4473C1214.27 98.5505 1216.26 98.1655 1218.23 98.336L1222.12 98.4103C1223.27 98.4323 1224.45 98.4605 1225.52 98.8995C1226.58 99.3388 1227.52 100.289 1227.59 101.438C1227.61 101.569 1227.6 101.702 1227.56 101.827C1227.52 101.951 1227.44 102.063 1227.34 102.151C1227.19 102.233 1227.02 102.271 1226.85 102.262C1225.78 102.299 1225.32 102.567 1224.25 102.605Z" fill="#588157"/>
<path d="M1193.25 114.799C1193.4 114.655 1193.51 114.472 1193.57 114.27C1193.62 114.068 1193.62 113.854 1193.56 113.653C1193.19 113.511 1192.79 113.474 1192.4 113.548C1192.01 113.621 1191.65 113.802 1191.36 114.07C1191.13 114.303 1190.93 114.566 1190.77 114.851C1190.26 115.685 1189.8 116.681 1190.1 117.614C1190.12 117.716 1190.17 117.811 1190.23 117.896C1190.29 117.98 1190.37 118.051 1190.46 118.105C1190.59 118.158 1190.73 118.181 1190.88 118.171C1191.44 118.17 1192 118.135 1192.56 118.067C1192.9 118.025 1193.3 117.928 1193.44 117.609C1193.61 117.189 1193.19 116.714 1193.31 116.276C1193.39 116.08 1193.51 115.904 1193.67 115.761C1193.75 115.689 1193.81 115.6 1193.84 115.5C1193.88 115.401 1193.89 115.295 1193.88 115.19C1193.83 114.984 1193.52 114.868 1193.41 115.046" fill="#A3B18A"/>
<path d="M1196.17 111.012C1195.67 110.897 1195.15 110.865 1194.64 110.916C1194.53 110.913 1194.42 110.938 1194.32 110.99C1194.22 111.062 1194.15 111.164 1194.12 111.28C1194.01 111.627 1194.04 112.001 1194.19 112.328C1194.35 112.656 1194.62 112.913 1194.96 113.048C1195.14 113.09 1195.32 113.161 1195.48 113.258C1195.91 113.592 1195.63 114.277 1195.72 114.818C1195.81 115.425 1196.4 115.934 1196.29 116.538C1196.2 117.014 1195.69 117.391 1195.78 117.868C1195.86 118.367 1196.5 118.517 1197 118.557C1197.29 118.608 1197.59 118.573 1197.87 118.457C1198.14 118.27 1198.34 117.988 1198.41 117.665C1198.62 117.05 1198.71 116.401 1198.67 115.753C1198.67 115.458 1198.59 115.168 1198.45 114.909C1198.3 114.703 1198.13 114.51 1197.95 114.332C1196.98 113.207 1198 111.529 1196.17 111.012Z" fill="#A3B18A"/>
<path opacity="0.8" d="M1323.3 199.151C1323.3 199.151 1249.25 156.626 1217.38 164.683C1217.38 164.683 1149.82 171.957 1141.99 187.96C1141.99 187.96 1120.51 120.815 1112.68 118.577" stroke="#F9A826" stroke-width="2" stroke-miterlimit="10"/>
<path opacity="0.8" d="M1141.99 187.96C1154.4 154.836 1266.25 118.13 1266.25 118.13C1250.37 122.158 1217.38 164.683 1217.38 164.683C1217.38 164.683 1147.58 113.877 1112.68 118.577C1112.68 118.577 1266.37 123.613 1323.3 199.151" stroke="#F9A826" stroke-width="2" stroke-miterlimit="10"/>
<path d="M1114.43 122.74C1116.6 122.74 1118.36 120.98 1118.36 118.809C1118.36 116.637 1116.6 114.877 1114.43 114.877C1112.26 114.877 1110.5 116.637 1110.5 118.809C1110.5 120.98 1112.26 122.74 1114.43 122.74Z" fill="#F9A826"/>
<path d="M1114.43 121.219C1114.63 121.219 1114.79 121.057 1114.79 120.858C1114.79 120.659 1114.63 120.497 1114.43 120.497C1114.23 120.497 1114.07 120.659 1114.07 120.858C1114.07 121.057 1114.23 121.219 1114.43 121.219Z" fill="white"/>
<path d="M1114.42 116.398C1114.39 116.619 1114.45 116.665 1114.45 117.615C1114.45 118.565 1114.65 119.838 1114.43 119.838C1114.2 119.839 1114.12 117.21 1113.35 116.977C1112.44 116.704 1114.53 115.685 1114.42 116.398Z" fill="white"/>
<path d="M1265.66 122.198C1267.83 122.198 1269.59 120.438 1269.59 118.266C1269.59 116.095 1267.83 114.334 1265.66 114.334C1263.49 114.334 1261.73 116.095 1261.73 118.266C1261.73 120.438 1263.49 122.198 1265.66 122.198Z" fill="#F9A826"/>
<path d="M1265.66 120.677C1265.86 120.677 1266.02 120.515 1266.02 120.315C1266.02 120.116 1265.86 119.955 1265.66 119.955C1265.46 119.955 1265.3 120.116 1265.3 120.315C1265.3 120.515 1265.46 120.677 1265.66 120.677Z" fill="white"/>
<path d="M1265.66 115.856C1265.63 116.076 1265.68 116.122 1265.68 117.072C1265.69 118.022 1265.88 119.296 1265.66 119.296C1265.44 119.296 1265.36 116.668 1264.58 116.435C1263.67 116.161 1265.77 115.143 1265.66 115.856Z" fill="white"/>
<path d="M1324.47 203.006C1326.64 203.006 1328.4 201.246 1328.4 199.074C1328.4 196.903 1326.64 195.142 1324.47 195.142C1322.3 195.142 1320.54 196.903 1320.54 199.074C1320.54 201.246 1322.3 203.006 1324.47 203.006Z" fill="#F9A826"/>
<path d="M1324.47 201.484C1324.67 201.484 1324.83 201.323 1324.83 201.123C1324.83 200.924 1324.67 200.762 1324.47 200.762C1324.27 200.762 1324.11 200.924 1324.11 201.123C1324.11 201.323 1324.27 201.484 1324.47 201.484Z" fill="white"/>
<path d="M1324.47 196.664C1324.44 196.884 1324.5 196.93 1324.5 197.88C1324.5 198.83 1324.7 200.104 1324.47 200.104C1324.25 200.104 1324.17 197.476 1323.39 197.243C1322.49 196.969 1324.58 195.95 1324.47 196.664Z" fill="white"/>
<path d="M1217.69 169.381C1219.86 169.381 1221.62 167.621 1221.62 165.449C1221.62 163.278 1219.86 161.517 1217.69 161.517C1215.52 161.517 1213.76 163.278 1213.76 165.449C1213.76 167.621 1215.52 169.381 1217.69 169.381Z" fill="#F9A826"/>
<path d="M1217.69 167.86C1217.89 167.86 1218.05 167.698 1218.05 167.498C1218.05 167.299 1217.89 167.138 1217.69 167.138C1217.49 167.138 1217.33 167.299 1217.33 167.498C1217.33 167.698 1217.49 167.86 1217.69 167.86Z" fill="white"/>
<path d="M1217.69 163.039C1217.65 163.259 1217.71 163.305 1217.71 164.255C1217.71 165.206 1217.91 166.479 1217.69 166.479C1217.46 166.479 1217.38 163.851 1216.61 163.618C1215.7 163.344 1217.79 162.326 1217.69 163.039Z" fill="white"/>
<path d="M1143.43 191.617C1145.6 191.617 1147.36 189.856 1147.36 187.685C1147.36 185.513 1145.6 183.753 1143.43 183.753C1141.26 183.753 1139.5 185.513 1139.5 187.685C1139.5 189.856 1141.26 191.617 1143.43 191.617Z" fill="#F9A826"/>
<path d="M1143.43 190.095C1143.63 190.095 1143.79 189.934 1143.79 189.734C1143.79 189.535 1143.63 189.373 1143.43 189.373C1143.23 189.373 1143.07 189.535 1143.07 189.734C1143.07 189.934 1143.23 190.095 1143.43 190.095Z" fill="white"/>
<path d="M1143.42 185.275C1143.39 185.495 1143.45 185.541 1143.45 186.491C1143.45 187.441 1143.65 188.715 1143.43 188.715C1143.2 188.715 1143.12 186.086 1142.35 185.854C1141.44 185.58 1143.53 184.561 1143.42 185.275Z" fill="white"/>
</svg>
